<?xml version="1.0" standalone="no"?>
<!DOCTYPE svg PUBLIC "-//W3C//DTD SVG 1.1//EN" "http://www.w3.org/Graphics/SVG/1.1/DTD/svg11.dtd" >
<!--
2013-9-30: Created.
-->
<svg>
<metadata>
Created by iconfont
</metadata>
<defs>

<font id="iconfont" horiz-adv-x="1024" >
  <font-face
    font-family="iconfont"
    font-weight="500"
    font-stretch="normal"
    units-per-em="1024"
    ascent="896"
    descent="-128"
  />
    <missing-glyph />
    
    <glyph glyph-name="x" unicode="x" horiz-adv-x="1001"
d="M281 543q-27 -1 -53 -1h-83q-18 0 -36.5 -6t-32.5 -18.5t-23 -32t-9 -45.5v-76h912v41q0 16 -0.5 30t-0.5 18q0 13 -5 29t-17 29.5t-31.5 22.5t-49.5 9h-133v-97h-438v97zM955 310v-52q0 -23 0.5 -52t0.5 -58t-10.5 -47.5t-26 -30t-33 -16t-31.5 -4.5q-14 -1 -29.5 -0.5
t-29.5 0.5h-32l-45 128h-439l-44 -128h-29h-34q-20 0 -45 1q-25 0 -41 9.5t-25.5 23t-13.5 29.5t-4 30v167h911zM163 247q-12 0 -21 -8.5t-9 -21.5t9 -21.5t21 -8.5q13 0 22 8.5t9 21.5t-9 21.5t-22 8.5zM316 123q-8 -26 -14 -48q-5 -19 -10.5 -37t-7.5 -25t-3 -15t1 -14.5
t9.5 -10.5t21.5 -4h37h67h81h80h64h36q23 0 34 12t2 38q-5 13 -9.5 30.5t-9.5 34.5q-5 19 -11 39h-368zM336 498v228q0 11 2.5 23t10 21.5t20.5 15.5t34 6h188q31 0 51.5 -14.5t20.5 -52.5v-227h-327z" />
    

    
    <glyph glyph-name="liebiao" unicode="&#59112;" d="M892.928 768q28.672 0 48.64-19.968t19.968-48.64l0-52.224q0-28.672-19.968-48.64t-48.64-19.968l-759.808 0q-28.672 0-48.64 19.968t-19.968 48.64l0 52.224q0 28.672 19.968 48.64t48.64 19.968l759.808 0zM892.928 447.488q28.672 0 48.64-19.968t19.968-48.64l0-52.224q0-28.672-19.968-48.64t-48.64-19.968l-759.808 0q-28.672 0-48.64 19.968t-19.968 48.64l0 52.224q0 28.672 19.968 48.64t48.64 19.968l759.808 0zM892.928 126.976q28.672 0 48.64-19.968t19.968-48.64l0-52.224q0-28.672-19.968-48.64t-48.64-19.968l-759.808 0q-28.672 0-48.64 19.968t-19.968 48.64l0 52.224q0 28.672 19.968 48.64t48.64 19.968l759.808 0z"  horiz-adv-x="1024" />

    
    <glyph glyph-name="denglu" unicode="&#59105;" d="M852.144032-41.16223600000001L285.2368-41.16223600000001c-62.614579 0-113.380832 50.764174-113.380832 113.37721L171.855968 185.59116100000006l56.690416 0 0-113.376187c0-31.306007 25.38415-56.688093 56.690416-56.688093l566.907232 0c31.307289 0 56.690416 25.38311 56.690416 56.688093l0 623.572098c0 31.306007-25.38415 56.688093-56.690416 56.688093L285.2368 752.475166c-31.307289 0-56.690416-25.382087-56.690416-56.688093l0-113.376187-56.690416 0L171.855968 695.787072c0 62.612013 50.766254 113.37721 113.380832 113.37721l566.907232 0c62.615602 0 113.381856-50.765197 113.381856-113.37721l0-623.572098C965.525888 9.601938000000018 914.759634-41.16223600000001 852.144032-41.16223600000001zM606.752315 560.930665c-11.044996 11.072173-11.044996 29.036313 0 40.079834 11.071603 11.072173 29.03648 11.072173 40.109106 0l195.565921-195.557908c5.896532-5.89629 8.414992-13.729699 8.028166-21.451568 0.386826-7.721869-2.131634-15.556301-8.028166-21.48022L646.862445 166.96187199999997c-11.072627-11.07115-29.037503-11.07115-40.109106 0-11.044996 11.072173-11.044996 29.036313 0 40.080857l148.619825 148.613736L86.818808 355.656465c-15.639829 0-28.34572 12.67774-28.34572 28.344558 0 15.639189 12.70589 28.344558 28.34572 28.344558l668.552308 0L606.752315 560.930665z"  horiz-adv-x="1024" />

    
    <glyph glyph-name="chuangxinjingxuan" unicode="&#58914;" d="M718.011492 359.331293 599.163687 359.331293c-20.199041 0-24.644283 3.107781-28.942169 11.383258-3.327792 6.430456-3.598968 18.285458-3.300162 25.107841 3.470031 79.369675-32.342616 134.663002-32.342616 134.663002-18.877953 7.081279-16.522302 7.030114-16.522302-13.113669 0 0-0.588401-68.486814-27.41949-108.998483-4.300956-6.515391-46.700625-45.957705-51.352575-48.929386l0-292.251134 251.375168 0c17.46272 0 31.655977 13.065574 31.655977 29.215392l0 16.428158-54.791907 0c-10.063193 0-18.256806 8.18645-18.256806 18.268062s8.193613 18.256806 18.256806 18.256806l82.167395 0 0 36.502355-82.167395 0c-10.063193 0-18.256806 8.18952-18.256806 18.268062 0 10.080589 8.193613 18.256806 18.256806 18.256806l82.167395 0 0 45.653783-82.167395 0c-10.063193 0-18.256806 8.175193-18.256806 18.255783 0 10.088776 8.193613 18.268062 18.256806 18.268062l82.167395 0 0 25.561166C749.688959 346.243207 735.488539 359.331293 718.011492 359.331293L718.011492 359.331293zM274.999726 330.112832l0-233.704716c0-16.149818 14.159488-29.215392 31.622208-29.215392l96.147804 0L402.769738 359.331293l-96.147804 0C289.136701 359.331293 274.999726 346.243207 274.999726 330.112832L274.999726 330.112832zM338.873476 158.504382c10.100032 0 18.270109-8.18645 18.270109-18.268062 0-10.080589-8.1711-18.268062-18.270109-18.268062-10.096962 0-18.268062 8.187473-18.268062 18.268062C320.606437 150.317932 328.777537 158.504382 338.873476 158.504382L338.873476 158.504382zM512.346389 752.676893c-247.914346 0-448.866101-200.968128-448.866101-448.880427 0-247.873414 200.951755-448.875311 448.866101-448.875311 247.891833 0 448.843588 201.00292 448.843588 448.875311C961.189977 551.717975 760.238222 752.676893 512.346389 752.676893L512.346389 752.676893zM786.210757 147.943862l0-7.689123c0-15.139815-12.276604-27.386744-27.41949-27.386744l0-45.657876c0-20.185738-16.328897-36.510542-36.476773-36.510542L439.28335 30.699578l-36.513612 0-9.100262 0L274.999726 30.699578c-20.200064 0-36.513612 16.340153-36.513612 36.510542L238.486114 359.331293c0 20.161179 16.33299 36.490076 36.513612 36.490076l155.080008 0c11.650341 9.712199 25.082258 23.600511 36.026518 42.219567 25.240871 42.86732 15.780405 112.979144 15.780405 112.979144 0 20.181645 27.51875 30.756491 46.364981 23.711028 0 0 32.239262-17.135262 50.281173-42.549072 27.210735-38.364773 29.074176-103.350856 27.997658-136.341225l143.158491 0c20.146852 0 36.520775-16.34834 36.520775-36.499285L786.209734 147.943862 786.210757 147.943862zM786.210757 147.943862"  horiz-adv-x="1024" />

    
    <glyph glyph-name="fujin" unicode="&#58921;" d="M406.531412 403.945397l-100.976786-310.722834 310.722834 101.94995 100.976786 309.747623L406.531412 403.945397zM511.404947 246.147488c-28.41005 0-51.950186 23.508413-51.950186 51.950186 0 28.41005 23.540136 51.949162 51.950186 51.949162 28.441772 0 51.950186-23.538089 51.950186-51.949162C563.35411 269.655901 539.84672 246.147488 511.404947 246.147488zM511.409041-147.260533c-57.961086 0-114.467031 10.996448-167.948083 32.685423-55.384401 22.459524-105.061824 55.449893-147.654898 98.05013-42.593074 42.60126-75.575256 92.284823-98.030687 147.670248-21.683858 53.483098-32.679283 109.986997-32.679283 167.945013 0 57.958016 10.995425 114.459868 32.679283 167.935804 22.456455 55.380308 55.43966 105.054661 98.032734 147.643642 42.590004 42.59819 92.26845 75.587536 147.651828 98.048083 53.481052 21.688975 109.985974 32.685423 167.948083 32.685423 57.961086 0 114.468055-10.997472 167.9532-32.685423 55.388495-22.460548 105.07308-55.44887 147.673317-98.049107 42.592051-42.587957 75.575256-92.26231 98.030687-147.642618 21.683858-53.476959 32.679283-109.97881 32.679283-167.935804 0-57.956993-10.994402-114.461915-32.679283-167.945013-22.454408-55.385425-55.437613-105.068987-98.028641-147.670248-42.602284-42.602284-92.28687-75.590606-147.675364-98.051153C625.877095-136.264085 569.369104-147.260533 511.409041-147.260533zM511.409041 694.238946c-105.561198 0-204.794269-41.10621-279.418874-115.747187-154.066935-154.050562-154.065911-404.743184 0-558.839795 74.624605-74.639954 173.857676-115.746164 279.418874-115.746164 105.562221 0 204.805526 41.107233 279.446503 115.748211 154.061818 154.094564 154.063865 404.787186 0.001023 558.834678C716.213543 653.130689 616.971261 694.238946 511.409041 694.238946z"  horiz-adv-x="1024" />

    
    <glyph glyph-name="triangle-bottom" unicode="&#59106;" d="M523.955 63.827l323.744 512c6.24 9.856 6.624 22.336 0.992 32.512-5.632 10.24-16.384 16.576-28.033 16.576h-647.328c-11.647 0-22.4-6.336-28.033-16.576-2.656-4.8-3.968-10.112-3.968-15.424 0-5.952 1.664-11.904 4.929-17.088l323.616-512c5.856-9.28 16.064-14.911 27.04-14.912s21.184 5.632 27.04 14.912z"  horiz-adv-x="1024" />

    
    <glyph glyph-name="iconfonticonfontwode1" unicode="&#58890;" d="M1023.392-70.24000000000001C1013.472-123.39200000000005 1013.152-128 995.712-128L511.936-128l-0.768 0L28.256-128c-17.376 0-17.696 4.608-27.584 57.76 0 0-0.48-43.808-0.032 40.672 0.096 19.584 4.704 24.096 14.88 41.184 22.624 38.048 92.896 62.016 92.896 62.016 66.624 62.72 216.928 62.464 232.288 62.048 15.36-0.384 25.888 17.824 30.976 31.04 4.576 24.832-9.44 85.696-46.432 124.128-50.816 52.832-73.856 96.32-84.288 143.52l-2.496 0.256-37.088 88.96 0 46.528 31.552 7.904c6.176 170.24 78.688 210.144 114.88 224.16 37.824 14.656 42.112 53.568 85.856 62.72C461.536 870.784 481.28 896 511.072 896c0.128 0 0.352-19.744 0.448-19.744l-0.448-26.816c-27.776-3.968-52.64-22.784-77.44-31.008-9.184-3.04-22.24-27.328-30.976-31.04-9.696-4.128-10.688-12.576-61.984-46.56-62.752-41.568-65.568-112.192-61.92-201.664 6.592-163.904 8.8-110.112 77.44-217.216 6.016-9.376 66.72-94.304 61.92-139.648-4.064-43.52 12.672-35.328-15.456-62.048-45.568-44.992-187.744-23.68-247.776-62.048 0 0-66.688-26.432-92.896-62.08-26.976-36.576-15.488-77.536-15.488-77.536l464.608 0 0.48-25.888 0.512 25.888 465.472 0c0 0 11.488 40.96-15.52 77.536-26.272 35.648-93.088 62.08-93.088 62.08-60.16 38.368-202.592 17.056-248.256 62.048-28.192 26.72-11.392 18.528-15.488 62.048-4.8 45.344 56.032 130.272 62.048 139.648 68.704 107.104 70.944 53.312 77.568 217.216 3.616 89.472 0.832 160.096-62.048 201.664-51.36 33.984-52.384 42.432-62.048 46.56-8.704 3.712-21.856 28-31.04 31.04-24.832 8.224-49.76 27.04-77.568 31.008l-0.448 26.816C511.68 876.224 511.904 896 512.032 896c29.824 0 49.6-25.216 77.568-31.008 43.84-9.152 48.128-48.096 86.016-62.72 36.288-14.016 108.832-53.952 115.072-224.16l31.648-7.904 0-46.528-37.152-88.96-2.528-0.256c-10.432-47.232-33.536-90.688-84.448-143.52-37.056-38.432-51.104-99.296-46.528-124.128 5.088-13.216 15.616-31.392 31.008-31.04 15.36 0.416 165.984 0.672 232.704-62.048 0 0 70.464-23.968 93.12-62.016 10.144-17.088 14.816-21.6 14.88-41.184C1023.872-114.048 1023.392-70.24000000000001 1023.392-70.24000000000001z"  horiz-adv-x="1024" />

    
    <glyph glyph-name="bijibendiannaolaptop106" unicode="&#58941;" d="M1137.70571899 638.917145c0 92.69714333-92.69714333 92.69714333-92.69714333 92.69714333L303.431427 731.61428833c0 0-92.69714333 0-92.69714333-92.69714333l0-463.485718 926.97143532 0L1137.70571899 638.917145zM164.38571167 82.73428366999997c0-46.348572 45.00446297-46.348572 45.00446297-46.348572l928.17649864 0c0 0 46.48761772 0 46.48761771 46.348572s-46.48761772 46.348572-46.48761771 46.348572L209.39017464 129.082855C209.39017464 129.082855 164.38571167 129.082855 164.38571167 82.73428366999997zM558.348572 105.90856932999998l185.39428733 1e-8c0 0 23.17428567 0 23.17428567-23.17428567s-23.17428567-23.17428567-23.17428567-23.17428566l-185.39428733 0c0 0-23.17428567 0-23.17428566 23.17428566S558.348572 105.90856932999998 558.348572 105.90856932999998z"  horiz-adv-x="1502" />

    
    <glyph glyph-name="remai" unicode="&#58988;" d="M506.016729-55.495686c9.958816 0 15.972786 0.312108 17.735943 0.417509 390.716726 20.329001 394.242016 299.54526 393.413138 330.86764l-0.206708 3.63069 0.312108 3.734044c7.051603 102.787014-59.431577 181.40763-59.431577 181.40763l0 0c-40.452317 44.599777-50.409087 96.045473-51.136657 133.48927-39.7227-23.857361-45.219901-73.538877-45.947472-84.739986l-8.609075-198.936865L637.640512 477.216032c-73.849962 105.066941-74.782194 263.865643-70.53138 337.403496-268.221858-100.506065-223.934189-379.306862-221.858924-391.443273l55.906288-311.887356-178.608887 261.792425-64.306608 94.281293c-21.782096-32.673144-38.998199-120.258944-46.568618-206.969818C129.202641-28.988985 390.57551-55.495686 506.016729-55.495686L506.016729-55.495686M506.016729-123.329631c-91.792613 0-470.061842 41.726334-470.061842 389.472386 0-0.002047 19.915585 255.464299 119.694079 280.979416l-0.624217-0.206708 0.624217 0.206708c0 0.002047 2.90312 0.62217 7.258311 0.62217 10.268878 0 29.042453-3.734044 41.904389-28.420283l73.745584-108.077507c0 0-67.624167 376.611473 310.1242 481.577107 0 0 1.24434 0.105401 3.423983 0.105401 11.719926 0 49.578162-3.320629 45.740764-46.469358 0.002047 0.002047-26.13831-214.494189 55.282071-330.24547 0.002047 0 6.121418 141.992945 138.157593 160.557766 0.002047 0 0.620124 0 1.657756 0 8.195659 0 43.045375-2.38328 44.395116-43.250036 0 0-16.909112-71.048149 30.699186-123.43017 0.002047 0 85.98535-97.289814 76.754105-231.607962 0 0.002047 15.352663-376.611473-457.513038-401.293619C527.280008-122.808768 519.502881-123.329631 506.016729-123.329631L506.016729-123.329631 506.016729-123.329631z"  horiz-adv-x="1024" />

    
    <glyph glyph-name="more" unicode="&#58936;" d="M191.2095459 455.28746719c-39.36720938 0-71.28656807-31.90766658-71.28656807-71.28746719 0-39.35641641 31.91845957-71.28656807 71.28656807-71.28656807 39.36810849 0 71.28746719 31.93015166 71.28746719 71.28656807C262.49701308 423.37980058 230.57855351 455.28746719 191.2095459 455.28746719zM511.99955001 455.28746719c-39.36720938 0-71.28656807-31.90766658-71.28656809-71.28746719 0-39.35641641 31.91845957-71.28656807 71.28656807-71.28656807 39.36810849 0 71.28746719 31.93015166 71.2874672 71.28656807C583.28701719 423.37980058 551.36765849 455.28746719 511.99955001 455.28746719zM832.78955498 455.28746719c-39.36720938 0-71.28656807-31.90766658-71.28656806-71.28746719 0-39.35641641 31.91845957-71.28656807 71.28656806-71.28656807s71.28656807 31.93015166 71.28656808 71.28656807C904.07522305 423.37980058 872.15676348 455.28746719 832.78955498 455.28746719z"  horiz-adv-x="1024" />

    
    <glyph glyph-name="leimupinleifenleileibie" unicode="&#59385;" d="M320 384 192 384c-70.4 0-128-57.6-128-128l0-128c0-70.4 57.6-128 128-128l128 0c70.4 0 128 57.6 128 128l0 128C448 326.4 390.4 384 320 384zM384 128c0-35.2-28.8-64-64-64L192 64c-35.2 0-64 28.8-64 64l0 128c0 35.2 28.8 64 64 64l128 0c35.2 0 64-28.8 64-64L384 128zM768 832l-128 0C569.6 832 512 774.4 512 704l0-128c0-70.4 57.6-128 128-128l128 0c70.4 0 128 57.6 128 128L896 704C896 774.4 838.4 832 768 832zM832 576c0-35.2-28.8-64-64-64l-128 0C604.8 512 576 540.8 576 576L576 704c0 35.2 28.8 64 64 64l128 0c35.2 0 64-28.8 64-64L832 576zM768 384l-128 0c-70.4 0-128-57.6-128-128l0-128c0-70.4 57.6-128 128-128l128 0c70.4 0 128 57.6 128 128l0 128C896 326.4 838.4 384 768 384zM832 128c0-35.2-28.8-64-64-64l-128 0c-35.2 0-64 28.8-64 64l0 128c0 35.2 28.8 64 64 64l128 0c35.2 0 64-28.8 64-64L832 128zM320 832 192 832C121.6 832 64 774.4 64 704l0-128c0-70.4 57.6-128 128-128l128 0c70.4 0 128 57.6 128 128L448 704C448 774.4 390.4 832 320 832zM384 576c0-35.2-28.8-64-64-64L192 512C156.8 512 128 540.8 128 576L128 704c0 35.2 28.8 64 64 64l128 0c35.2 0 64-28.8 64-64L384 576z"  horiz-adv-x="1024" />

    
    <glyph glyph-name="weixin1" unicode="&#58905;" d="M684.2624 559.360922c10.256998 0 20.405555-0.753152 30.472294-1.873715C687.354982 684.973773 551.049933 779.695104 395.467162 779.695104c-173.940736 0-316.424704-118.557184-316.424704-269.103923 0-86.8992 47.403622-158.259405 126.61801-213.608038l-31.648051-95.184896 110.615859 55.468339c39.581082-7.834419 71.337677-15.888896 110.837965-15.888896 9.929523 0 19.775181 0.490189 29.539021 1.257677-6.182093 21.154816-9.763738 43.312435-9.763738 66.302054C415.242342 447.174861 533.955994 559.360922 684.2624 559.360922zM514.125517 645.150822c23.825613 0 39.60873-15.673958 39.60873-39.484314 0-23.715123-15.783117-39.607091-39.60873-39.607091-23.716147 0-47.513088 15.891968-47.513088 39.607091C466.612429 629.477888 490.40937 645.150822 514.125517 645.150822zM292.671693 566.060544c-23.713075 0-47.648154 15.891968-47.648154 39.607091 0 23.810253 23.934054 39.484314 47.648154 39.484314 23.715123 0 39.499264-15.673958 39.499264-39.484314C332.170957 581.95241 316.386816 566.060544 292.671693 566.060544zM973.059686 312.739021c0 126.504141-126.593434 229.620736-268.773478 229.620736-150.553088 0-269.128499-103.116493-269.128499-229.620736 0-126.72215 118.576538-229.620736 269.128499-229.620736 31.510938 0 63.294157 7.945933 94.942208 15.877632l86.79127-47.525376-23.796941 79.073894C925.73696 178.193715 973.059686 241.378714 973.059686 312.739021zM617.027379 352.331776c-15.755469 0-31.648051 15.673958-31.648051 31.661056 0 15.766118 15.892582 31.643648 31.648051 31.643648 23.934054 0 39.60873-15.877632 39.60873-31.643648C656.636109 368.005734 640.961434 352.331776 617.027379 352.331776zM791.077581 352.331776c-15.647027 0-31.430144 15.673958-31.430144 31.661056 0 15.766118 15.783117 31.643648 31.430144 31.643648 23.715123 0 39.605658-15.877632 39.605658-31.643648C830.684262 368.005734 814.793626 352.331776 791.077581 352.331776z"  horiz-adv-x="1024" />

    
    <glyph glyph-name="prev-arrow" unicode="&#58891;" d="M460.04065183 635.7410280199999L265.49518535 388.32994567 461.65179438 132.25897197999996 562.34820562 132.25897197999996 385.02182548 376.24637633 559.22661687 635.7410280199999ZM661.43347424 635.7410280199999L466.88800773 388.32994567 663.04461681 132.25897197999996 763.74102802 132.25897197999996 586.41464791 376.24637633 760.61943926 635.7410280199999Z"  horiz-adv-x="1025" />

    
    <glyph glyph-name="next-arrow" unicode="&#58892;" d="M569.09486516 132.25897197999996L763.74102802 379.67005432999997 567.58441899 635.7410280199999 466.88800772 635.7410280199999 644.11369151 391.75362367 470.00959653 132.25897197999996ZM367.70204273 132.25897197999996L562.34820562 379.67005432999997 366.19159657 635.7410280199999 265.49518535 635.7410280199999 442.72086909 391.75362367 268.6167741 132.25897197999996Z"  horiz-adv-x="1025" />

    
    <glyph glyph-name="shouji1" unicode="&#58991;" d="M512.387 116.07c-24.834 0-45.039-20.201-45.039-45.041 0-24.834 20.205-45.036 45.039-45.036 24.838 0 45.043 20.202 45.043 45.036C557.43 95.869 537.225 116.07 512.387 116.07L512.387 116.07zM512.387 116.07M735.214 825 289.563 825c-37.495 0-67.994-30.501-67.994-67.995l0-747.902c0-37.494 30.5-67.994 67.994-67.994l445.651 0c37.494 0 67.994 30.5 67.994 67.994L803.208 757.005C803.208 794.499 772.708 825 735.214 825L735.214 825zM289.563 779.672l445.651 0c12.5 0 22.667-10.167 22.667-22.667l0-560.323L266.897 196.682 266.897 757.005C266.897 769.505 277.063 779.672 289.563 779.672L289.563 779.672zM735.214-13.561 289.563-13.561c-12.5 0-22.666 10.169-22.666 22.664L266.897 147.475l490.983 0 0-138.371C757.881-3.396 747.714-13.561 735.214-13.561L735.214-13.561zM735.214-13.561"  horiz-adv-x="1024" />

    
    <glyph glyph-name="triangle-up" unicode="&#59107;" d="M27.273 142.38699999999994l485.222 484.233 484.233-485.222z"  horiz-adv-x="1024" />

    
    <glyph glyph-name="triangle-right" unicode="&#59108;" d="M270.387 868.727l484.233-485.222-485.222-484.233z"  horiz-adv-x="1024" />

    
    <glyph glyph-name="triangle-left" unicode="&#59110;" d="M753.613-100.72699999999998l-484.233 485.222 485.222 484.233z"  horiz-adv-x="1024" />

    
    <glyph glyph-name="bangdan" unicode="&#58923;" d="M739.505689 40.97086c22.013487 12.912304 20.506103 60.010927 39.846118 76.506821 19.425338 16.552777 64.874371 6.88277 81.171177 26.59252 16.268365 19.624426-0.93856 63.366988 11.774656 85.693328 12.627892 22.127252 58.617308 28.782492 67.348755 53.128157 8.589242 23.919047-22.354781 58.958602-17.917954 84.612562C926.023061 392.418737 966.978386 414.659753 966.978386 440.825655c0 26.194343-40.955324 48.406918-45.249945 73.349848-4.436827 25.625519 26.507196 60.693515 17.917954 84.612562-8.731448 24.317224-54.720864 31.000905-67.348755 53.128157-12.741656 22.32634 4.465268 66.068902-11.774656 85.693328-16.296806 19.681309-61.74584 10.039743-81.171177 26.59252-19.340014 16.495894-17.832631 63.594517-39.846118 76.506821-21.814398 12.798539-61.262339-11.973744-85.238269-3.100091-23.577753 8.703006-38.054322 53.497892-63.338547 57.991602C566.38412 899.923463 537.715393 862.921465 511.919227 862.921465s-54.436452 37.001998-79.009646 32.622053c-25.255783-4.493709-39.732353-49.260154-63.310105-57.96316-24.004371-8.845212-63.42387 15.927071-85.238269 3.100091-22.013487-12.912304-20.506103-60.010927-39.874559-76.506821C225.06131 747.649292 179.612276 757.290858 163.31547 737.581108 147.047105 717.956682 164.25403 674.214121 151.512373 651.887781c-12.59945-22.09881-58.588867-28.782492-67.320314-53.128157-8.589242-23.919047 22.354781-58.987043 17.917954-84.612562C97.815393 489.261014 56.860068 467.019997 56.860068 440.825655c0-26.194343 40.955324-48.406918 45.249945-73.321407 4.436827-25.625519-26.507196-60.693515-17.917954-84.612562 8.731448-24.317224 54.720864-31.000905 67.320314-53.128157 12.741656-22.32634-4.465268-66.068902 11.803097-85.693328 16.296806-19.681309 61.74584-10.068184 81.171177-26.59252 19.368455-16.495894 17.832631-63.566076 39.846118-76.506821 21.814398-12.798539 61.262339 12.002185 85.238269 3.100091 23.577753-8.703006 38.054322-53.469451 63.338547-57.96316 24.573195-4.379944 53.21348 32.622053 79.009646 32.622053s54.464893-37.001998 79.009646-32.650495c25.255783 4.493709 39.760794 49.260154 63.310105 57.96316C678.243349 52.944604 717.69129 28.172321 739.505689 40.97086zM511.919227 71.090088c-204.207797 0-369.735566 165.55621-369.735566 369.764007S307.71143 810.589662 511.919227 810.589662s369.735566-165.55621 369.735566-369.764007S716.127024 71.090088 511.919227 71.090088zM255.891568-9.028765c-24.772283 14.533452-23.065811 67.519403-44.823327 86.063063-21.84284 18.600543-72.980113 7.764447-91.324685 29.92014-0.93856 1.137648-1.791795 2.332178-2.531267 3.612032L69.943019 63.2972c-22.212575-22.212575-15.386688-46.416034 14.874746-53.981393l32.3092-8.0773c30.432081-7.5938 61.29078-38.594705 68.856139-68.856139l8.0773-32.3092c7.5938-30.432081 31.626612-37.229527 53.981393-14.874746l107.564609 107.564609c-1.251413 0.654148-2.502825 1.222971-3.81112 1.706472C324.83303 4.452363 280.436321-23.420011 255.891568-9.028765zM906.540841 110.481147c-0.739471-1.222971-1.564266-2.389061-2.474384-3.498267-18.344572-22.155693-69.481845-11.319597-91.296244-29.92014-21.785957-18.543661-20.079485-71.529611-44.851768-86.063063-24.516312-14.419687-68.913021 13.481128-95.875276 3.498267-1.336736-0.4835-2.645031-1.080766-3.924885-1.763354l107.507726-107.507726c22.354781-22.354781 46.359152-15.528894 53.981393 14.874746l8.0773 32.3092c7.565359 30.261434 38.424058 61.262339 68.856139 68.856139l32.3092 8.0773c30.261434 7.565359 37.087321 31.768818 14.874746 53.981393L906.540841 110.481147zM369.71324 521.058273l0 41.524148 60.295339 0 0 39.817676L369.71324 602.400097 369.71324 706.49488 329.895564 706.49488l0-104.094783L257.086098 602.400097l0-39.817676 71.671817 0c-15.927071-72.240641-42.661796-136.517748-80.204177-193.400142l17.633542-44.937092c26.165902 44.368268 47.212388 93.287127 63.708282 146.756579l0-284.411974L369.71324 186.589791 369.71324 477.258829c12.514127-20.477662 27.872373-47.781212 45.505916-81.910649l22.752958 34.698261C415.219156 463.03823 392.466198 493.754723 369.71324 521.058273zM490.303917 517.645329l227.529579 0 0-49.487683 39.248852 0 0 85.892416-78.497705 0c7.963535 21.61531 14.789423 44.368268 19.908838 67.121226l56.313571 0L754.807053 657.57602l-128.554212 0c-6.825887 19.340014-13.651775 36.973557-21.046486 52.331803l-40.955324-6.825887c7.963535-13.651775 14.789423-29.010021 21.61531-45.505916l-131.398332 0 0-36.404733 56.313571 0c7.963535-19.908838 15.358247-42.092972 22.184134-67.121226l-81.910649 0 0-88.167712 39.248852 0L490.303917 517.645329zM659.24463 621.171287c-4.550592-23.321782-10.807655-45.505916-19.908838-67.121226L571.645742 554.050062c-6.257063 24.45943-13.082951 46.643564-19.908838 67.121226L659.24463 621.171287zM608.050474 498.305315l-40.3865-6.825887c7.963535-15.927071 15.927071-33.560613 22.752958-52.900627l-141.637163 0 0-37.542381 88.736536 0c-4.550592-87.030064-42.092972-149.031874-112.058318-186.574255l21.61531-34.129437c55.175923 30.716493 92.718304 75.084761 113.195966 132.53598l127.416564 0c-1.706472-46.643564-5.688239-73.378289-12.514127-79.635353-6.257063-5.688239-17.064718-9.101183-31.854141-9.101183l-50.625331 0 10.807655-36.404733 32.991789 0c11.376479 0 23.321782 1.137648 34.698261 2.84412 13.651775 2.84412 24.45943 7.394711 31.285317 13.082951 16.495894 14.220599 25.028254 62.570634 25.028254 145.050107l-157.564234 0c3.412944 16.495894 5.119416 34.129437 6.257063 52.331803l189.418375 0 0 37.542381-135.3801 0C623.408721 460.762934 616.01401 480.671772 608.050474 498.305315z"  horiz-adv-x="1024" />

    
    <glyph glyph-name="tesefuwu" unicode="&#58924;" d="M512.537805 891.906765C232.773837 891.906765 5.172019 664.314266 5.172019 384.560742c0-279.736115 227.601818-507.32759 507.365786-507.32759 279.76704 0 507.368858 227.591475 507.368858 507.32759C1019.90656 664.314266 792.303718 891.906765 512.537805 891.906765zM512.537805-70.843187c-251.129651 0-455.438029 204.298957-455.438029 455.404032 0 251.120333 204.307354 455.422464 455.438029 455.422464 251.130675 0 455.443149-204.299981 455.443149-455.422464C967.979827 133.456794 763.668378-70.843187 512.537805-70.843187zM490.074214 368.368026c-2.18071 14.180966-15.551795 23.882957-29.614694 21.702246l-50.692608-7.808819L409.766912 491.654882l51.927754 0c14.33303 0 25.964339 11.629875 25.964339 25.962291 0 14.33344-11.631411 25.962291-25.964339 25.962291l-51.927754 0 0 86.539982c0 14.334464-11.619123 25.962291-25.962291 25.962291-14.344294 0-25.964339-11.627827-25.964339-25.962291l0-86.539982-34.615774 0 0 51.924603c0 14.33344-11.621171 25.962291-25.964339 25.962291-14.342246 0-25.963315-11.628851-25.963315-25.962291l0-61.676711c0-19.808154-11.89335-31.961907-20.418867-31.961907-14.34327 0-25.964339-11.628851-25.964339-25.962291 0-14.332416 11.621171-25.962291 25.964339-25.962291 26.58048 0 49.602662 16.885555 62.177587 41.715098l44.784784 0 0-117.371174-107.156787-16.496742c-14.174413-2.18071-23.894118-15.431475-21.712384-29.612442 1.968947-12.829184 13.031322-22.00617 25.624678-22.00617 1.310925 0 2.646426 0.101274 3.982848 0.303923l99.263795 15.280026 0-176.258353c0-14.335488 11.620147-25.961267 25.964339-25.961267 14.34327 0 25.962291 11.625779 25.962291 25.961267L409.769138 329.729979l58.605056 9.025536C482.536243 340.936192 492.255027 354.187981 490.074214 368.368026zM755.944141 491.654861 652.091754 491.654861l0 51.924603 86.543528 0c14.334054 0 25.963315 11.629875 25.963315 25.962291 0 14.33344-11.629363 25.962291-25.963315 25.962291l-86.543528 0 0 69.231781c0 14.334464-11.629363 25.962291-25.962291 25.962291-14.335078 0-25.963315-11.626803-25.963315-25.962291l0-69.231781-69.235641 0c-14.335078 0-25.963315-11.628851-25.963315-25.962291 0-14.332416 11.628339-25.962291 25.963315-25.962291l69.235641 0 0-51.924603-86.545574 0c-14.332006 0-25.96137-11.628851-25.96137-25.961267 0-14.33344 11.629363-25.963315 25.96137-25.963315l242.32372 0c14.335078 0 25.963315 11.629875 25.963315 25.963315C781.907558 480.02601 770.278195 491.654861 755.944141 491.654861zM755.944141 370.498458l-51.924684 0 0 34.616402c0 14.33344-11.629363 25.962291-25.964339 25.962291-14.33303 0-25.962291-11.628851-25.962291-25.962291l0-34.616402L513.619448 370.498458c-14.332006 0-25.96137-11.628851-25.96137-25.963315 0-14.332416 11.629363-25.961267 25.96137-25.961267l138.471282 0 0-123.607202c0-23.343616 0-33.01079-48.006246-33.01079-14.33303 0-25.960346-11.630899-25.960346-25.962291 0-14.334464 11.627315-25.963315 25.960346-25.963315 29.903258 0 99.932979 0 99.932979 84.936499L704.017463 318.572872l51.924684 0c14.335078 0 25.963315 11.628851 25.963315 25.961267C781.907558 358.868582 770.278195 370.498458 755.944141 370.498458zM539.583795 292.61056c-14.33303 0-25.964339-11.628851-25.964339-25.961267l0-51.924603c0-14.334464 11.631411-25.963315 25.964339-25.963315 14.335078 0 25.963315 11.628851 25.963315 25.963315l0 51.924603C565.547213 280.981709 553.918874 292.61056 539.583795 292.61056z"  horiz-adv-x="1024" />

    
    <glyph glyph-name="dingdan1" unicode="&#58902;" d="M743.30253687 682.11020156c25.56186938 0 46.260795 20.03025937 46.260795 44.71720219L789.56333187 816.26372531c0 24.70229156-20.69892656 44.73159187-46.260795 44.73159188-25.56282844 0-46.26271406-20.02930031-46.26271406-44.73159188l0-89.4363225C697.04174188 702.14046094 717.7416275 682.11020156 743.30253687 682.11020156zM280.69554406 682.11020156c25.56282844 0 46.26175406 20.03025937 46.26175407 44.71720219L326.95729906 816.26372531c0 24.70229156-20.69892656 44.73159187-46.26175406 44.73159188-25.56186938 0-46.25983594-20.02930031-46.25983594-44.73159188l0-89.4363225C234.43666813 702.14046094 255.13559375 682.11020156 280.69554406 682.11020156zM912.91458031 771.54652312l-77.0904525 0 0-44.71720218c0-49.37580281-41.4266325-89.4363225-92.52063094-89.4363225s-92.51871188 40.06051875-92.51871187 89.4363225L650.78478406 771.54652312l-46.260795 0-3.0862275 0c0 1.04760937-38.34424219 0-89.43824062 0s-89.4353625-0.465285-89.4353625 0l-3.08814657 0-46.260795 0 0-44.71720218c0-49.37580281-41.39593312-89.4363225-92.51967187-89.4363225-51.09303938 0-92.52063094 40.06051875-92.52063094 89.4363225L188.17491312 771.54652312 111.08446063 771.54652312c-25.56186938 0-46.26175406-20.03121844-46.26175407-44.71720218l0-775.10551875c0-24.68790188 20.69988563-44.71816125 46.26175406-44.71816125l801.83203782 0c25.56186938 0 46.260795 20.03025937 46.260795 44.71816125L959.17729344 726.82932188C959.17537531 751.51530469 938.47548969 771.54652312 912.91458031 771.54652312zM712.4536925 56.067458439999996L311.54438844 56.067458439999996c-18.45212906 0-33.41606437 14.96393437-33.41606438 33.40647 0 18.45404812 14.96393437 33.4179825 33.41606438 33.4179825l400.90834406 0c18.45404812 0 33.4179825-14.96393437 33.4179825-33.4179825C745.871675 71.03139281000006 730.90774063 56.067458439999996 712.4536925 56.067458439999996zM712.4536925 228.75037969000005L311.54438844 228.75037969000005c-18.45212906 0-33.41606437 14.96393437-33.41606438 33.40647 0 18.45404812 14.96393437 33.4179825 33.41606438 33.4179825l400.90834406 0c18.45404812 0 33.4179825-14.96393437 33.4179825-33.4179825C745.871675 243.71431406 730.90774063 228.75037969000005 712.4536925 228.75037969000005zM712.4536925 401.4333L311.54438844 401.4333c-18.45212906 0-33.41606437 14.96489344-33.41606438 33.40743 0 18.45308906 14.96393437 33.41606437 33.41606438 33.41606437l400.90834406 0c18.45404812 0 33.4179825-14.96297531 33.4179825-33.41606437C745.871675 416.39723437 730.90774063 401.4333 712.4536925 401.4333z"  horiz-adv-x="1024" />

    
    <glyph glyph-name="mima1" unicode="&#58966;" d="M814.953382-64.35854099999995L201.825147-64.35854099999995c-52.04433 0-94.326319 42.303478-94.326319 94.304829L107.498828 312.90477899999996c0 52.045353 42.281989 94.349855 94.326319 94.349855l613.127212 0c52.046377 0 94.349855-42.303478 94.349855-94.349855l0-282.95849C909.303236-22.05506300000002 866.999758-64.35854099999995 814.953382-64.35854099999995L814.953382-64.35854099999995zM862.116541 312.90477899999996c0 26.000164-21.166065 47.174416-47.164183 47.174416L201.825147 360.07919400000003c-25.999141 0-47.162136-21.173229-47.162136-47.174416l0-282.95849c0-26.024723 21.164019-47.187719 47.162136-47.187719l613.127212 0c25.998117 0 47.164183 21.164019 47.164183 47.187719L862.116541 312.90477899999996 862.116541 312.90477899999996zM791.39278 501.593232c-13.057387 0-23.603581 10.513448-23.603581 23.559579 0 143.032624-116.3888 259.410168-259.422448 259.410168-143.03467 0-259.377422-116.377544-259.377422-259.410168l0-141.469012c0-13.046131-10.547217-23.604604-23.581068-23.604604-13.059434 0-23.583115 10.558473-23.583115 23.604604L201.825147 525.15281c0 169.078837 137.50677 306.574351 306.541605 306.574351 169.033811 0 306.58663-137.495514 306.58663-306.574351C814.953382 512.10668 804.381605 501.593232 791.39278 501.593232L791.39278 501.593232zM508.366751 171.43678999999997c-26.046213 0-47.117111 21.140483-47.117111 47.163159 0 26.069749 21.070898 47.187719 47.117111 47.187719 26.091238 0 47.164183-21.118993 47.164183-47.187719C555.530934 192.577273 534.457989 171.43678999999997 508.366751 171.43678999999997L508.366751 171.43678999999997zM508.366751 77.10944800000004c-12.988826 0-23.559579 10.54824-23.559579 23.604604l0 94.304829c0 13.032828 10.570753 23.581068 23.559579 23.581068 13.057387 0 23.604604-10.54824 23.604604-23.581068l0-94.304829C531.971355 87.65666499999998 521.424138 77.10944800000004 508.366751 77.10944800000004L508.366751 77.10944800000004z"  horiz-adv-x="1024" />

    
    <glyph glyph-name="diannao" unicode="&#58888;" d="M969.536 493.056a22.4 22.4 0 0 1-22.336-22.08V622.912a22.4 22.4 0 0 1 44.736 0.128h0.064V736a22.4 22.4 0 0 1-22.4 22.4H54.4a22.528 22.528 0 0 1-22.4-22.4v-604.608c0-12.288 10.112-22.4 22.4-22.4h915.2a22.4 22.4 0 0 1 22.4 22.4V470.656a22.4 22.4 0 0 1-22.464 22.4zM969.6 568m-22.4 0a22.4 22.4 0 1 1 44.8 0 22.4 22.4 0 1 1-44.8 0ZM77.44 264.832a0.64 0.64 0 0 0-0.64 0.64V706.624a0.64 0.64 0 0 0 0.64 0.64h869.184c0.256 0 0.64-0.256 0.64-0.64v-441.152c0-0.32-0.384-0.64-0.64-0.64H77.44zM77.44 155.968a0.64 0.64 0 0 0-0.64 0.64v69.12a0.64 0.64 0 0 0 0.64 0.64h869.184c0.256 0 0.64-0.32 0.64-0.64v-69.12c0-0.32-0.384-0.64-0.64-0.64H77.44zM76.8 264.832h870.464v-44.8H76.8zM637.12 20.224H386.816l19.264 88.768h211.904zM431.68 20.224l19.2 88.768h122.368l19.136-88.768zM721.984 8a16 16 0 0 0-16-16H318.016a16 16 0 0 0 0 32h388.032a16 16 0 0 0 15.936-16zM512 189.312m-18.176 0a18.176 18.176 0 1 1 36.352 0 18.176 18.176 0 1 1-36.352 0ZM366.272 450.24a22.464 22.464 0 0 0-31.68 0 22.464 22.464 0 0 0 0 31.68l134.272 134.272a22.464 22.464 0 0 0 31.68 0 22.464 22.464 0 0 0 0-31.68L366.272 450.24zM407.424 355.84a22.464 22.464 0 0 0-31.68 0 22.528 22.528 0 0 0 0 31.744l67.328 67.264a22.464 22.464 0 0 0 31.68 0 22.464 22.464 0 0 0 0-31.68L407.424 355.84z"  horiz-adv-x="1024" />

    
    <glyph glyph-name="remai1" unicode="&#58931;" d="M458.752 665.088c-6.656-176.64-295.936-460.288 0-572.928-99.84 106.496 115.2 154.112 64.512 346.112 80.384-23.552 133.632-283.648 43.008-334.336 267.264 70.656 77.312 494.592-107.52 561.152zM512-34.816c-227.84 0-413.696 185.344-413.696 413.696 0 227.84 185.344 413.696 413.696 413.696 227.84 0 413.696-185.344 413.696-413.696 0-227.84-185.856-413.696-413.696-413.696z m0 785.92c-205.312 0-372.736-166.912-372.736-372.736s166.912-372.736 372.736-372.736 372.736 166.912 372.736 372.736-167.424 372.736-372.736 372.736z"  horiz-adv-x="1024" />

    
    <glyph glyph-name="xinpin" unicode="&#58901;" d="M987.04 362.792c-15.951 18.618-12.415 26.62 0.947 42.956 69.21 84.716 31.696 201.788-74.55 229.604-26.705 6.985-38.047 14.813-28.855 37.193C887.36 779.94 783.764 852.205 682.875 814.66c-23.697-8.815-32.08-6.967-46.299 13.836-61.223 89.51-188.549 89.59-249.31-0.046-14.453-21.302-23.543-22.162-46.413-13.935-103.4 37.228-208.124-36.36-201.084-142.258 1.774-26.523-6.729-30.735-29.426-36.824C4.276 606.93-34.412 488.055 35.925 405.64c15.47-18.123 13.656-25.996-0.449-43.293-70.264-86.13-30.09-202.613 79.444-230.943 20.223-5.23 26.623-9.243 25.28-31.722-6.748-112.214 95.964-184.444 205.302-144.714 20.503 7.474 27.514 5.58 39.599-12.37 63.32-94.021 190.484-93.64 253.87 0.987 12.649 18.874 19.977 18.476 39.684 11.11 108.264-40.473 214.39 35.934 204.702 147.362-1.786 20.577 3.608 23.863 22.703 28.612 112.563 27.945 154.277 146.564 80.98 232.123zM214.635 177.794l-58.778 168.943c-5.088 14.651 0.203 24.952 15.841 30.861 8.91 1.167 16.832-0.137 23.728-3.87l145.283-92.081 1.251 0.417-39.036 112.224c-5.094 14.652 0.198 24.953 15.842 30.879 15.358 4.114 25.992-1.052 31.941-15.43l58.743-168.945c4.003-14.153-1.552-23.656-16.633-28.532-8.383-2.727-16.022-2.202-22.93 1.595l-144.888 90.879-1.251-0.4L262.37 193.26c3.984-14.16-1.557-23.657-16.634-28.557-15.906-5.165-26.288-0.798-31.1 13.09zM436.72 250.9l-56.748 163.14c-5.638 16.216-0.63 27.26 15.033 33.188l80.433 26.002c13.675 3.588 23.494-0.56 29.48-12.35 3.127-14.432-2-23.82-15.393-28.157l-56.562-18.286 14.895-42.813 52.794 17.054c14.799 3.062 25.146-1.305 31.133-13.102 2.858-13.662-2.662-23.165-16.634-28.533l-52.794-17.077 15.694-45.113 59.09 19.083c14.518 3.824 24.338-0.319 29.479-12.34 3.127-14.426-2.002-23.814-15.393-28.152l-82.95-26.829c-15.391-4.132-25.906 0.652-31.557 14.285z m178.89 56.54l-97.827 148.59c-2.763 2.52-4.381 5.848-4.878 10.025-3.194 11.831 2.068 20.803 15.788 26.955 13.392 4.321 24.753-0.156 34.047-13.449l69.852-116.436 1.276 0.415-3.609 143.006c0.431 12.131 6.813 20.647 19.114 25.476 12.001 3.027 22.386-0.063 31.169-9.214l86.55-116.21 1.277 0.409-15.823 133.895c-3.146 14.442 2.696 24.483 17.507 30.127 13.92 2.773 23.745-1.322 29.461-12.34 1.361-3.887 2.115-7.504 2.367-10.838l16.135-175.004c-1.042-15.783-9.107-26.13-24.188-30.97-16.785-5.437-29.93-2.41-39.535 9.081l-77.538 102.363 2.133-126.764c-1.306-15.004-9.49-24.935-24.59-29.811-17.62-5.66-30.532-2.118-38.688 10.694z m0 0"  horiz-adv-x="1024" />

    
    <glyph glyph-name="miaosha1" unicode="&#58994;" d="M515.99872 890.88c-279.94624 0-506.88-226.9184-506.88-506.88 0-279.94624 226.93376-506.88 506.88-506.88s506.88 226.93376 506.88 506.88c0 279.9616-226.93376 506.88-506.88 506.88z m92.5184-204.8h28.54912v-374.14912h-28.54912V686.08zM519.2192 586.92096l26.66496-5.82656c-18.65216-86.62528-42.9568-158.5664-74.1888-219.6992l-24.9856 16.17408c32.33792 61.2096 56.72448 131.61472 72.50944 209.35168zM355.64544 398.85312v-316.84096h-26.55232V423.33696l-7.168-20.16256c-23.00928-64.80896-54.22592-122.21952-95.3088-175.3344l-12.6976 31.104c26.44992 31.34976 49.2544 64.89088 67.82464 99.72736 19.03104 35.70688 34.24256 73.95328 45.22496 113.70496l1.3056 4.74624H228.6336v27.59168h100.46464V614.71744l-4.33152-0.768a1964.672 1964.672 0 0 0-87.6032-13.696l-5.77024 27.64288c76.5696 8.54016 146.57536 24.12544 208.21504 46.36672l9.48224-26.68032c-24.76544-8.93952-52.92032-17.09568-90.61888-26.2656l-2.82112-0.6912v-115.90656h86.48704v-27.59168H355.64544v-57.9584l1.1776-1.11616c36.18304-33.88928 71.49056-71.37792 104.98048-111.4368l-16.03072-23.58272c-31.9232 45.47072-60.07808 81.9712-83.70176 108.58496l-6.4256 7.23456zM435.63008 81.92l-14.76096 25.6512c81.6128 21.72928 150.64064 56.43264 205.21472 103.20384 54.67136 46.83264 96.23552 106.96704 123.62752 178.7904l24.22784-15.48288c-57.37984-149.82144-171.16672-248.09472-338.30912-292.16256z m356.59264 330.29632c-31.96416 67.56864-67.456 128.50176-105.5488 181.25824l25.22112 8.33536a1118.09024 1118.09024 0 0 0 106.18368-177.83296l-25.856-11.76064z"  horiz-adv-x="1032" />

    
    <glyph glyph-name="laba" unicode="&#58935;" d="M830.888 600.496c111.792-34.984 192.032-120.192 192.032-219.72 0-99.824-79.616-185.28-192.032-220.016M682.976 880l-358.48-260.776h-214.616c-60.064 0-108.8-48.704-108.8-108.8v-252.944c0-60.096 48.736-108.728 108.8-108.728h214.68l358.416-260.752v992zM1.080 385.264v-127.784c0-60.096 48.736-108.728 108.8-108.728h214.68l358.416-260.752v497.264h-681.896zM324.56 148.752h-214.68c-60.064 0-108.8 48.632-108.8 108.728v252.944c0 60.096 48.736 108.8 108.8 108.8h214.608l0.072-470.472zM1.080 257.48c0-60.096 48.736-108.728 108.8-108.728h214.68l-0.032 236.512h-323.448v-127.784zM830.888 160.768c112.416 34.736 192.032 120.192 192.032 220.016 0 1.528-0.416 2.952-0.488 4.48h-191.544v-224.496z"  horiz-adv-x="1103" />

    
    <glyph glyph-name="xiaoxi1" unicode="&#58903;" d="M510.5 797.8C290.9 797.8 113 642.1 113 450c0-109.8 58.3-207.5 149-271.2v-175.9l174.1 105.7c24.1-4 48.9-6.3 74.3-6.3 219.5 0 397.5 155.7 397.5 347.8 0 192-177.9 347.7-397.4 347.7zM311.7 400.3c-27.4 0-49.7 22.2-49.7 49.7 0 27.4 22.2 49.7 49.7 49.7 27.4 0 49.7-22.2 49.7-49.7 0-27.4-22.2-49.7-49.7-49.7z m198.8 0c-27.4 0-49.7 22.2-49.7 49.7 0 27.4 22.2 49.7 49.7 49.7 27.4 0 49.7-22.2 49.7-49.7-0.1-27.4-22.3-49.7-49.7-49.7z m198.7 0c-27.4 0-49.7 22.2-49.7 49.7 0 27.4 22.2 49.7 49.7 49.7 27.4 0 49.7-22.2 49.7-49.7 0-27.4-22.3-49.7-49.7-49.7z"  horiz-adv-x="1024" />

    
    <glyph glyph-name="lingdang" unicode="&#59584;" d="M512-64c49.6 0 88 38.4 88 88H424c0-49.6 38.4-88 88-88z m288.8 286.4V451.2c0 137.6-97.6 252.8-224.8 283.2v28.8c0 32-17.6 60.8-48 67.2-44 10.4-80-23.2-80-66.4v-30.4C320.8 704 223.2 588.8 223.2 451.2v-228.8L136 132.79999999999995v-44.8h752v44.8l-87.2 89.6z"  horiz-adv-x="1024" />

    
    <glyph glyph-name="sousuo" unicode="&#58894;" d="M750.88 99.872l45.248 45.248 180.992-181.024-45.216-45.216-181.024 180.992zM448 128c176.448 0 320 143.552 320 320S624.448 768 448 768 128 624.448 128 448s143.552-320 320-320m0-64C235.936 64 63.968 235.936 63.968 448S235.936 832.032 448 832.032 832 660.064 832 448s-171.936-384-384-384z"  horiz-adv-x="1024" />

    
    <glyph glyph-name="lunbotu" unicode="&#59032;" d="M412.8 448c38.4 0 76.8 22.4 89.6 57.6 16 35.2 6.4 76.8-19.2 105.6s-70.4 35.2-105.6 19.2c-35.2-12.8-57.6-51.2-57.6-89.6 0-51.2 41.6-92.8 92.8-92.8zM393.6 566.4c6.4 6.4 12.8 9.6 22.4 9.6 16 0 32-12.8 32-28.8s-12.8-32-28.8-35.2c-16 0-32 12.8-35.2 28.8 0 9.6 3.2 19.2 9.6 25.6zM896 672h-32v64c0 35.2-28.8 64-64 64h-576c-35.2 0-64-28.8-64-64v-64h-32c-35.2 0-64-28.8-64-64v-448c0-35.2 28.8-64 64-64h32v-64c0-35.2 28.8-64 64-64h576c35.2 0 64 28.8 64 64v64h32c35.2 0 64 28.8 64 64v448c0 35.2-28.8 64-64 64zM160 160c-19.2 0-32 12.8-32 32v384c0 19.2 12.8 32 32 32v-448zM800 64c0-19.2-12.8-32-32-32h-512c-16 0-32 12.8-32 32v640c0 19.2 12.8 32 32 32h512c16 0 32-12.8 32-32v-640zM896 192c0-19.2-12.8-32-32-32v448c16 0 32-12.8 32-32v-384zM684.8 432l-134.4-134.4-67.2 67.2c-6.4 6.4-12.8 9.6-22.4 9.6-9.6 0-16-3.2-22.4-9.6l-160-160c-12.8-12.8-12.8-32 0-44.8s32-12.8 44.8 0l134.4 134.4 67.2-67.2c6.4-6.4 12.8-9.6 22.4-9.6s16 3.2 22.4 9.6l160 160c12.8 12.8 12.8 32 0 44.8-9.6 12.8-32 12.8-44.8 0z"  horiz-adv-x="1024" />

    
    <glyph glyph-name="kehuqunzu" unicode="&#58995;" d="M575.457882 388.487529c59.226353 23.476706 101.285647 81.212235 101.285647 148.690824 0 88.229647-71.785412 160-160.015058 160s-160-71.770353-160-160c0-67.478588 42.044235-125.214118 101.270588-148.690824-131.689412-27.226353-231.002353-144.097882-231.002353-283.738353 0-33.957647 23.823059-45.206588 42.962823-54.241882l1.099295-0.451765c77.176471-27.241412 188.792471-34.499765 242.582588-34.499764 58.654118 0 173.477647 9.517176 249.735529 35.855059 28.581647 10.962824 43.083294 28.912941 43.083294 53.338352 0 139.655529-99.312941 256.527059-231.002353 283.738353zM382.780235 401.965176c-37.903059 35.343059-61.741176 85.564235-61.741176 141.477648 0 68.472471 35.644235 128.512 89.283765 162.93647v0.015059c-0.331294 0.466824-0.813176 0.737882-1.189648 1.129412-0.391529 0.421647-0.632471 0.948706-1.099294 1.325176a160.301176 160.301176 0 0 1-100.141176 35.312941c-88.229647 0-160.015059-71.770353-160.015059-160 0-67.478588 42.059294-125.214118 101.285647-148.690823C117.458824 408.244706 18.160941 291.373176 18.160941 151.732706c0-24.440471 14.501647-42.375529 43.459765-53.488941 42.887529-14.817882 96.105412-23.356235 134.128941-27.994353a322.409412 322.409412 0 0 0-2.409412 38.731294c0 130.439529 77.778824 242.642824 189.44 292.98447zM786.808471 435.456c59.226353 23.476706 101.285647 81.212235 101.285647 148.690824 0 88.229647-71.785412 160-160.015059 160-36.939294 0-73.005176-12.905412-101.51153-36.321883l-4.246588-3.478588a193.400471 193.400471 0 0 0 85.940706-160.903529c0-55.913412-23.838118-106.134588-61.741176-141.477648 111.661176-50.341647 189.44-162.544941 189.44-292.98447 0-13.402353-0.918588-26.578824-2.499765-39.544471l0.798118 0.090353c39.137882 4.547765 95.216941 13.206588 140.483764 28.852706 28.581647 10.962824 43.083294 28.912941 43.083294 53.338353 0 139.655529-99.312941 256.527059-231.017411 283.738353z"  horiz-adv-x="1024" />

    
    <glyph glyph-name="tuikuan" unicode="&#58975;" d="M676.231 540.593c-6.069 6.069-14.139 9.412-22.723 9.412-8.582 0-16.654-3.342-22.722-9.412l-84.586-84.584-84.563 84.562c-6.071 6.068-14.14 9.412-22.724 9.412-8.583 0-16.652-3.341-22.722-9.412-12.528-12.531-12.528-32.917 0-45.446l52.414-52.416h-51.147c-3.435-0.001-6.219-2.784-6.22-6.219v-51.832c0.001-3.435 2.785-6.218 6.22-6.219h96.619v-43.028h-96.619c-3.435-0.001-6.219-2.785-6.22-6.22v-51.831c0.001-3.435 2.785-6.219 6.22-6.22h96.619v-96.621c0-17.72 14.415-32.135 32.135-32.135s32.135 14.415 32.135 32.135v96.621h96.621c3.435 0.001 6.218 2.785 6.219 6.22v51.831c-0.001 3.435-2.784 6.219-6.219 6.22h-96.62v43.027h96.621c3.434 0.001 6.218 2.785 6.219 6.219v51.832c-0.001 3.434-2.785 6.218-6.219 6.219h-51.174l52.438 52.435c12.53 12.532 12.53 32.918 0 45.448zM939.223 547.537c-21.478 50.78-52.218 96.379-91.369 135.529-39.153 39.152-84.75 69.892-135.529 91.367-52.586 22.243-108.432 33.521-165.987 33.521-57.548 0-113.391-11.279-165.976-33.521-50.777-21.476-96.372-52.217-135.522-91.367-39.15-39.151-69.888-84.748-91.367-135.527-17.812-40.959-29.557-88.473-32.711-138.319l-9.865 121.845c-5.153 11.598-16.687 19.095-29.383 19.095-4.505 0-8.889-0.933-13.032-2.775-7.845-3.485-13.862-9.816-16.944-17.828-3.082-8.012-2.859-16.743 0.625-24.588l65.878-148.281c1.623-3.695 3.775-6.856 6.403-9.553l-5.123 6.932c0.382-0.7 0.753-1.331 1.135-1.93 2.377-3.655 5.358-6.703 8.833-9.082-7.551 7.231-7.375 6.998-7.196 6.766 2.904-3.725 6.513-6.757 10.643-8.931l-8.659 6.6c0.192-0.206 0.386-0.417 0.583-0.617 0.206-0.21 0.425-0.417 0.642-0.626l0.083-0.080c2.945-2.832 6.488-5.064 10.42-6.487-8.55 4.83-8.138 4.499-7.717 4.18 0.127-0.101 0.233-0.183 0.336-0.258 0.562-0.417 1.147-0.82 1.787-1.231l0.123-0.078c0.566-0.361 1.166-0.712 1.778-1.045l0.202-0.109c3.375-1.855 7.323-3.148 11.516-3.636-7.451 1.795-7.42 1.786-7.388 1.774 0.589-0.215 1.199-0.417 1.867-0.618l0.201-0.059 0.174-0.053c0.611-0.173 1.18-0.319 1.728-0.443l0.022-0.005 0.265-0.065c1.796-0.406 3.875-0.661 6.005-0.705-3.752 0.301-3.523 0.273-3.294 0.243l0.119-0.015c0.391-0.047 0.776-0.090 1.161-0.126l0.134-0.013c0.272-0.022 0.545-0.045 0.819-0.061 0.386-0.023 0.782-0.036 1.177-0.044l0.090-0.006c0.214-0.010 0.428-0.019 0.642-0.019 0.847 0 1.728 0.039 2.69 0.121l0.176 0.014c0.874 0.080 1.752 0.197 2.607 0.346l0.388 0.070c2.651 0.495 5.005 1.237 7.225 2.223-4.676-1.646-4.551-1.61-4.424-1.571l0.058 0.017c3.367 0.982 6.307 2.324 8.999 4.022l-6.952-3.366c0.194 0.065 0.387 0.134 0.579 0.207 3.681 1.413 6.859 3.275 9.674 5.565l-7.923-4.847c0.095 0.043 0.186 0.088 0.277 0.132 0.271 0.126 0.503 0.236 0.735 0.35 3.725 1.838 6.886 4.245 9.512 7.146l-7.072-5.819c4.447 2.7 8.088 6.299 10.757 10.569l116.157 99.94c13.328 11.678 14.671 32.021 2.995 45.35-5.923 6.732-14.557 10.957-24.178 10.957-0.001 0-0.003 0-0.004 0 0 0-0.001 0-0.002 0-8.124 0-15.544-3.019-21.198-7.995l-57.918-50.741c32.423 168.607 182.333 293.704 355.631 293.704 199.682 0 362.135-162.453 362.135-362.134 0-199.672-162.453-362.116-362.135-362.116-86.401 0-170.067 30.93-235.589 87.093-5.585 4.807-12.907 7.733-20.912 7.735 0.001 0-0.007 0-0.017 0-9.738 0-18.463-4.335-24.351-11.182-11.566-13.495-10.002-33.821 3.449-45.353 77.164-66.139 175.685-102.562 277.417-102.562 57.552 0 113.398 11.277 165.986 33.519 50.78 21.476 96.378 52.217 135.528 91.366 39.151 39.148 69.891 84.743 91.37 135.523 22.243 52.585 33.522 108.428 33.522 165.977-0.004 57.549-11.284 113.396-33.525 165.985z"  horiz-adv-x="1024" />

    
    <glyph glyph-name="ccgl-yundanguanli-1" unicode="&#58957;" d="M1028.333 58.2h-225c-19.8 0-34.2 16.2-34.2 36s16.2 36 34.2 36h190.8v597.6c0 19.8-16.2 36-34.2 36h-561.6c-19.8 0-34.2-16.2-34.2-36s-16.2-36-34.2-36h-84.6c-19.8 0-34.2 16.2-34.2 36s14.4 34.2 34.2 34.2h54c14.4 41.4 54 70.2 99 70.2h559.8c57.6 0 104.4-46.8 104.4-106.2v-633.6c1.8-18-14.4-34.2-34.2-34.2zM558.533 58.2h-158.4c-57.6 0-104.4 46.8-104.4 106.2 0 19.8 16.2 36 34.2 36s34.2-16.2 34.2-36 16.2-36 34.2-36h158.4c19.8 0 34.2-16.2 34.2-36s-14.4-34.2-32.4-34.2zM1417.133 58.2h-48.6c-19.8 0-34.2 16.2-34.2 36s16.2 36 34.2 36h48.6v219.6l-135 201.6h-216v-423h55.8c19.8 0 34.2-16.2 34.2-36s-16.2-36-34.2-36h-91.8c-19.8 0-34.2 16.2-34.2 36v493.2c0 19.8 16.2 36 34.2 36h250.2c23.4 0 45-12.6 57.6-30.6l135-201.6c7.2-12.6 12.6-25.2 12.6-39.6v-221.4c1.8-37.8-30.6-70.2-68.4-70.2zM682.733-66c-86.4 0-158.4 72-158.4 158.4s70.2 158.4 158.4 158.4 158.4-72 158.4-158.4-72-158.4-158.4-158.4zM682.733 180.6c-48.6 0-88.2-39.6-88.2-88.2s39.6-88.2 88.2-88.2 88.2 39.6 88.2 88.2c-1.8 48.6-39.6 88.2-88.2 88.2zM1247.933-66c-86.4 0-158.4 72-158.4 158.4s70.2 158.4 158.4 158.4c86.4 0 158.4-72 158.4-158.4s-72-158.4-158.4-158.4zM1247.933 180.6c-48.6 0-88.2-39.6-88.2-88.2s39.6-88.2 88.2-88.2 88.2 39.6 88.2 88.2-39.6 88.2-88.2 88.2zM441.533 567.6h-162c-19.8 0-34.2 16.2-34.2 36s16.2 36 34.2 36h162c19.8 0 34.2-16.2 34.2-36s-16.2-36-34.2-36zM364.133 285h-162c-19.8 0-34.2 16.2-34.2 36s16.2 36 34.2 36h162c19.8 0 34.2-16.2 34.2-36s-14.4-36-34.2-36zM594.533 439.8h-477c-19.8 0-34.2 16.2-34.2 36s16.2 36 34.2 36h477c19.8 0 34.2-16.2 34.2-36 1.8-19.8-14.4-36-34.2-36zM1379.333 425.4h-210.6c-19.8 0-34.2 16.2-34.2 36s16.2 36 34.2 36h210.6c19.8 0 34.2-16.2 34.2-36 1.8-19.8-14.4-36-34.2-36z"  horiz-adv-x="1597" />

    
    <glyph glyph-name="ccgl-tuihuosunyi-7" unicode="&#59098;" d="M365.668 12.176l203.643-0.068c20.495-0.007 37.114 16.601 37.119 37.096s-16.601 37.114-37.096 37.119l-203.643 0.068c-20.495 0.007-37.114-16.601-37.119-37.096-0.007-20.494 16.601-37.113 37.096-37.119zM734.369 12.23h109.047c61.8 0 111.869 49.559 111.869 111.308v222.675c0 52.751-31.916 116.692-74.205 148.408l-178.139 133.605c-23.526 17.644-44.518 59.563-44.518 89.051 0 61.729-49.357 111.323-111.541 111.323h-370.642c-61.341 0-111.541-50.169-111.541-110.982v-594.407c0-61.458 49.604-110.982 111.401-110.982h29.453c20.495 0 37.107 16.614 37.107 37.107s-16.614 37.107-37.107 37.107h-29.453c-20.836 0-37.186 16.323-37.186 36.766v594.408c0 19.814 16.962 36.766 37.326 36.766h370.642c21.115 0 37.326-16.287 37.326-37.107 0-52.864 32.002-116.771 74.204-148.422l178.139-133.605c23.585-17.688 44.518-59.626 44.518-89.036v-222.675c0-20.591-16.673-37.094-37.653-37.094h-109.046c-20.495 0-37.107-16.614-37.107-37.107s16.613-37.107 37.107-37.107zM658.423 12.23c-20.495 0-37.107 16.614-37.107 37.107s16.614 37.107 37.107 37.107c20.495 0 37.107-16.614 37.107-37.107s-16.613-37.107-37.107-37.107zM658.423-61.986c61.482 0 111.323 49.841 111.323 111.323s-49.841 111.323-111.323 111.323-111.323-49.841-111.323-111.323 49.841-111.323 111.323-111.323zM287.345 12.23c-20.495 0-37.107 16.614-37.107 37.107s16.614 37.107 37.107 37.107 37.107-16.614 37.107-37.107-16.613-37.107-37.107-37.107zM287.345-61.986c61.482 0 111.323 49.841 111.323 111.323s-49.841 111.323-111.323 111.323-111.323-49.841-111.323-111.323 49.841-111.323 111.323-111.323zM390.219 400.004l17.68 17.68c14.441 14.442 14.801 38.297 0.31 52.789-14.068 14.067-38.126 14.352-52.788-0.31l-78.097-78.097c-8.056-8.056-11.73-19.040-10.889-29.693-0.537-10.258 3.028-20.797 10.877-28.644l78.097-78.097c14.441-14.441 38.297-14.801 52.788-0.31 14.068 14.068 14.352 38.126-0.31 52.789l-17.68 17.68h305.993c19.527 0 36.441 16.614 36.441 37.107 0 19.895-16.315 37.107-36.441 37.107h-305.98z"  horiz-adv-x="1024" />

    
    <glyph glyph-name="jingxuan" unicode="&#59520;" d="M753.92 768h1.664c-0.491 0-0.853-0.021-1.216 0.128 0.384-0.149 0.725-0.128 1.216-0.128h-1.685v0h-503.317l-142.080-237.653 344.576-448.128-133.355 429.781h-197.12l-14.080 18.347 14.549 24.32h183.403l-62.677 201.984 6.784 11.349h34.368l59.755-192.576 127.189 192.576h79.765l123.371-186.795 57.963 186.795h20.907l16.192-24.405-58.624-188.928h183.851l19.563-29.525-10.197-13.141h-206.443l-137.941-444.523-48.107-62.080v0l402.709 519.744-161.003 242.859zM215.509 792.512c5.973 10.027 20.395 18.155 32.085 18.155h507.947c11.733 0 26.539-7.979 33.024-17.771l166.997-251.925c6.485-9.813 6.016-25.173-1.365-34.709l-416.043-537.003c-14.421-18.603-37.824-18.475-52.203 0.235l-415.808 540.757c-7.253 9.429-8.256 25.237-2.283 35.221l147.669 247.040zM361.045 522.752l147.904-476.651 149.696 482.432-146.859 222.421-150.72-228.203z"  horiz-adv-x="1024" />

    
    <glyph glyph-name="toutiao" unicode="&#59538;" d="M298.666667 746.666667c82.410667 0 149.333333-66.986667 149.333333-149.333334v-149.333333h-149.333333c-82.410667 0-149.333333 66.986667-149.333334 149.333333 0 82.410667 66.986667 149.333333 149.333334 149.333334z m0-341.333334h192v192c0 105.92-86.016 192-192 192-105.92 0-192-86.016-192-192 0-105.92 86.016-192 192-192z m0-42.666666c-105.984 0-192-86.08-192-192 0-105.984 86.08-192 192-192 105.984 0 192 86.08 192 192v170.666666a21.333333 21.333333 0 0 1-21.333334 21.333334h-170.666666z m149.333333-192c0-82.346667-66.922667-149.333333-149.333333-149.333334-82.346667 0-149.333333 66.922667-149.333334 149.333334 0 82.346667 66.922667 149.333333 149.333334 149.333333h149.333333v-149.333333z m277.333333 149.333333c82.410667 0 149.333333-66.986667 149.333334-149.333333 0-82.410667-66.986667-149.333333-149.333334-149.333334-82.453333 0-149.333333 66.88-149.333333 149.269334v24.298666a21.333333 21.333333 0 0 1-42.666667 0v-24.298666C533.333333 64.661333 619.306667-21.333333 725.333333-21.333333c105.92 0 192 86.016 192 192 0 105.92-86.016 192-192 192h-170.666666a21.333333 21.333333 0 0 1 0-42.666667h170.666666z m0 469.333333c-105.984 0-192-86.08-192-192v-170.666666a21.333333 21.333333 0 0 1 21.333334-21.333334h170.666666c105.984 0 192 86.08 192 192 0 105.984-86.08 192-192 192z m0-341.333333h-149.333333v149.333333c0 82.346667 66.922667 149.333333 149.333333 149.333334 82.346667 0 149.333333-66.922667 149.333334-149.333334 0-82.346667-66.922667-149.333333-149.333334-149.333333z"  horiz-adv-x="1024" />

    
    <glyph glyph-name="tuijian" unicode="&#58893;" d="M453.5 727.4c0-132.7-84-216.5-120.1-246.4l-9.6-7.9-8.4 9.2c-5 5.5-25.7 11.1-40.9 11.1H111.3c-7.6 0-14.2-6.6-14.2-14.2v-489.8c0-9.4 4.8-14.2 14.2-14.2h517.1c175.8 0 228.5 93.4 286.7 316.8 19 72.7 15.2 126.8-11.1 160.9-27.3 35.3-73.7 42.7-107.9 42.7-17.3 0-29.4-2-29.5-2l-2.2-0.2H609.7l6.4 17.5c0.3 0.7 26 71.5 26 113.1 0 152.3-78.6 168.8-112.3 168.8-6.6 0-10.7-0.7-10.8-0.7l-2.1-0.2c-6.5 0-63.4-2.6-63.4-64.5zM287.6 3.6H125.4V465h162.1v-461.4z m241.9 762.7c40 0 87.6-22.4 87.6-129.3 0-76.6-42.1-139.9-68.4-171.9h214c4.5 1 17.4 3.5 33.4 3.5 35.3 0 63.2-11.9 80.5-34.5 23.9-31.1 27-81.1 9-148.7-47.4-178.5-104.7-281.8-257.5-281.8H315.9V431.7l5.7 3.9c1.6 1.1 156.7 107.9 156.7 291.8 0 25.8 17.3 38.9 51.2 38.9z"  horiz-adv-x="1024" />

    
    <glyph glyph-name="mima" unicode="&#58937;" d="M792.832 536.192h0.832-0.832zM960 384v-359.808C960-59.648000000000025 887.296-128 797.76-128h-571.52C136.704-128 64-59.648000000000025 64 24.192000000000007V384c0 82.752 70.784 150.4 158.72 152.192V618.3679999999999C222.72 776.3199999999999 346.688 896 510.848 896c165.504 0 290.432-119.68 290.368-277.568v-82.24C889.152 534.4 960 466.752 960 384z m-229.248 234.368c0 123.904-92.352 213.12-219.904 213.12-126.208 0-217.6-89.152-217.6-213.12V537.6h437.504V618.3679999999999zM226.304 471.68c-50.496 0-91.776-39.232-91.776-87.68v-359.808c0-48.448 41.28-87.68 91.776-87.68h571.52c50.368 0 91.712 39.296 91.712 87.68V384c0 48.448-41.344 87.68-91.776 87.68h-67.008l-437.44 1.408-67.008-1.408z m280.704-143.616c36.48 0 66.048-27.968 66.112-62.464 0-23.04-13.312-43.264-33.024-54.08v-101.952c0-17.216-14.848-31.232-33.088-31.232a32.192 32.192 0 0 0-33.088 31.232v102.016a62.016 62.016 0 0 0-33.024 54.016c0 34.56 29.568 62.464 66.112 62.464z"  horiz-adv-x="1024" />

    
    <glyph glyph-name="miaosha" unicode="&#58895;" d="M370.10944 833.21856a23.0144 23.0144 0 0 0 28.34432-16.04096c3.35872-12.25728-3.7888-24.94464-16.06656-28.29824a496.5376 496.5376 0 0 1-120.89856-51.78368 502.87616 502.87616 0 0 1-103.552-82.02752 23.07584 23.07584 0 0 0-32.5632-0.67072c-9.1648 8.84736-9.46688 23.424-0.60928 32.56832a545.6896 545.6896 0 0 0 113.08032 89.59488 541.31712 541.31712 0 0 0 132.26496 56.65792z m-47.77472-849.71008a23.07584 23.07584 0 0 0-9.40544 31.22688 23.11168 23.11168 0 0 0 31.27808 9.40032 361.1904 361.1904 0 0 1 83.27168-32.38912c28.40576-7.19872 58.21952-10.9824 89.06752-10.9824 100.12672 0 190.848 40.56064 256.46592 106.06592 65.664 65.5616 106.22976 156.06272 106.22976 256.09728 0 99.95776-40.56576 190.53056-106.22976 256.09216-65.6128 65.50016-156.3392 106.0608-256.46592 106.0608-100.18816 0-190.90944-40.55552-256.52224-106.12224-65.6128-65.50016-106.24-156.01152-106.24-256.03072 0-43.97568 7.81824-86.12352 22.17472-124.97408a362.17344 362.17344 0 0 1 64.14848-109.71648 22.8352 22.8352 0 0 0-2.63168-32.32256c-9.6512-8.23808-24.192-7.08096-32.37376 2.55488-31.03744 36.41344-55.7824 78.19264-72.51968 123.62752a406.36416 406.36416 0 0 0-25.04704 140.8256c0 112.70656 45.81888 214.80448 119.79776 288.72192 73.97888 73.856 176.24576 119.54176 289.2032 119.54176 112.896 0 215.15776-45.68064 289.2032-119.54176 73.97888-73.92256 119.74144-176.01536 119.74144-288.72192 0-112.77312-45.76256-214.87104-119.79776-288.72704-73.984-73.856-176.25088-119.59808-289.14688-119.59808a412.032 412.032 0 0 0-100.2496 12.38016 409.48736 409.48736 0 0 0-93.952 36.5312zM480.8704 607.80032a23.15776 23.15776 0 0 0 23.14752 23.1168 23.14752 23.14752 0 0 0 23.0912-23.1168v-241.8176h209.23392c12.7744 0 23.09632-10.31168 23.09632-23.05536s-10.32192-23.12192-23.09632-23.12192H504.01792a23.15776 23.15776 0 0 0-23.14752 23.12192V607.80032z m427.44832 79.16544a23.06048 23.06048 0 0 0-0.60928-32.56832 23.14752 23.14752 0 0 0-32.61952 0.67072 501.1456 501.1456 0 0 1-103.49056 82.02752 497.64864 497.64864 0 0 1-120.89856 51.78368 22.9376 22.9376 0 0 0-16.06656 28.29824 22.98368 22.98368 0 0 0 28.34432 16.04096 542.4128 542.4128 0 0 0 132.25984-56.65792 547.31264 547.31264 0 0 0 113.08032-89.59488z"  horiz-adv-x="1024" />

    
    <glyph glyph-name="tuihuoqietuikuan" unicode="&#58960;" d="M512 810.666667C276.394667 810.666667 85.333333 619.605333 85.333333 384s191.061333-426.666667 426.666667-426.666667c235.648 0 426.666667 191.061333 426.666667 426.666667S747.648 810.666667 512 810.666667z m-227.413333-365.098667c0 18.090667 6.528 44.714667 15.104 60.458667l39.082666 73.557333c9.856 18.432 33.834667 32.853333 54.485334 32.853333h239.744c20.992 0 44.970667-14.805333 54.485333-33.194666l39.125333-75.264c8.533333-15.744 14.805333-42.282667 14.805334-60.373334v-59.52l-0.042667-0.085333a143.786667 143.786667 0 0 1-28.970667 16.810667v43.178666c0 1.578667 0 3.541333-0.341333 5.546667H313.173333c0-1.28-0.341333-2.986667-0.341333-3.968v-11.562667c0-7.808-6.229333-14.037333-14.122667-14.037333s-14.122667 6.272-14.122666 14.037333v11.562667z m-26.282667-131.968c-0.341333 0.341333-0.341333 0.768-0.64 0.896-0.341333 0.768-0.682667 1.066667-0.682667 1.834667-0.341333 0.170667-0.341333 0.853333-0.341333 1.152s-0.341333 0.981333-0.341333 1.322666C256 318.848 256 319.829333 256 320.853333s0 1.92 0.341333 2.901334c0 0.341333 0.341333 0.981333 0.341334 1.322666s0.341333 0.896 0.341333 1.237334c0.341333 0.682667 0.682667 0.981333 0.682667 1.664 0.341333 0.341333 0.341333 0.682667 0.341333 0.896 0.682667 0.768 0.896 1.749333 1.962667 2.432l49.109333 48.469333a13.994667 13.994667 0 0 0 20.010667 0.042667 13.952 13.952 0 0 0 0-19.925334l-24.533334-24.618666h83.925334c7.808 0 14.037333-6.229333 14.037333-14.165334a14.122667 14.122667 0 0 0-14.037333-13.994666H304.554667l24.533333-24.661334a13.610667 13.610667 0 0 0 4.224-9.984 13.397333 13.397333 0 0 0-4.224-9.898666 14.293333 14.293333 0 0 0-9.984-4.181334 14.293333 14.293333 0 0 0-9.984 4.181334L260.266667 311.338667c-0.597333 0.597333-1.365333 1.322667-1.962667 2.261333z m69.290667-158.037333c-23.637333 0-42.666667 18.986667-42.666667 42.752v17.749333c0 7.850667 6.229333 14.08 14.165333 14.08 7.850667 0 14.122667-6.229333 14.122667-14.08v-17.493333c0-7.509333 6.229333-14.08 14.122667-14.08h213.930666c8.192-10.922667 17.877333-20.650667 28.8-28.928H327.594667z m329.045333 0h-2.816a114.176 114.176 0 0 0-114.218667 114.261333 114.133333 114.133333 0 1 0 228.394667 0 114.218667 114.218667 0 0 0-111.36-114.261333zM685.738667 336l-20.949334-38.570667a206.208 206.208 0 0 1-10.282666-20.906666h-0.341334c-3.669333 8.405333-14.08 28.245333-31.189333 59.52h-19.712l36.650667-62.933334h-30.037334v-13.909333h35.157334v-19.157333h-35.157334v-14.08h35.157334v-27.904h17.493333v27.904h33.962667v14.08h-33.962667v19.157333h33.962667V273.066667h-29.141334l36.949334 62.933333h-18.56z"  horiz-adv-x="1024" />

    
    <glyph glyph-name="chulizhong" unicode="&#58961;" d="M865.4 550.6c4.8-9.9 14.8-16.2 25.8-16.2 4.2 0 8.4 1 12.3 2.8 14.2 6.8 20.2 23.4 13.6 37.9-2.7 5.6-5.4 11.3-8.3 16.6-3.5 6.7-9.5 11.7-16.7 13.9-7.2 2.3-15 1.6-21.7-2-13.9-7.4-19.2-24.6-12.1-38 2.1-4.8 4.6-10 7.1-15z m46-36.4c-15.2-4.2-24.4-19.8-20.5-34.6 2.7-10.8 4.8-21.3 6.4-31.4 2.2-13.8 14.2-23.9 28.1-23.9 1.5 0 3.3 0.1 4.6 0.3 15.5 2.5 25.9 16.8 23.6 32.8-2.1 12.1-4.6 24.2-7.5 36.1-1.7 7.3-6.3 13.6-12.8 17.5-6.6 3.9-14.5 5.1-21.9 3.2zM676.3 29.6c-9.8-4.5-19.7-8.6-29.7-12.5-7.1-2.6-12.9-7.9-16-14.7-3.2-6.8-3.5-14.7-0.8-21.8 4.2-11.1 14.8-18.5 26.7-18.5 3.2 0 6.4 0.6 9.9 1.7 11.6 4.2 23 9 34.2 14.2 6.9 3.2 12.2 9 14.8 16.1 2.6 7.1 2.2 15-1.1 21.8-6.8 14.1-23.8 20.3-38 13.7zM920 284.7c-15 4.8-31.1-3.5-35.8-18.5-3.3-10.2-6.9-20.3-11-30.3-2.9-7.1-2.9-15 0.2-22.1 2.9-6.9 8.5-12.3 15.4-14.9 3.6-1.5 7.2-2.2 10.8-2.2 11.6-0.1 22 6.9 26.4 17.7 4.7 11.4 8.8 23 12.5 34.7 2.3 7.1 1.7 14.8-1.7 21.5-3.5 6.7-9.5 11.8-16.8 14.1z m31.4 106.4c-5.2 5.5-12.4 8.7-19.9 8.8h-0.8c-15.4 0-28-12.2-28.5-27.5-0.5-13-1.2-22.9-2.2-32.2-1.8-15.6 9.4-29.7 24.9-31.5l1.2-0.1c0.7-0.1 1.4-0.2 2-0.2 14.4 0 26.8 11.2 28.2 25.2 1.4 11.2 2.3 23.6 2.7 36.9 0.4 7.6-2.3 15-7.6 20.6z m-74-214.1c-13.2 8.5-30.8 4.9-39.5-8.1-5-7.8-11-16.1-18.8-26-4.7-5.9-6.8-13.5-5.9-21 0.9-7.5 4.8-14.3 10.7-18.9 12.4-9.6 30.3-7.4 40 4.9 7.6 9.8 14.8 19.8 21.7 30.1 8.5 13 4.8 30.4-8.2 39z m-90-82.1c-7.5 0.6-15-1.9-20.7-6.8h-0.1c-8.3-7.3-17.5-14.2-25.2-20-12.7-9.3-15.5-26.8-6.2-39.8 5.4-7.3 13.9-11.6 23-11.6 6 0 11.9 1.9 16.8 5.4 9.9 7.3 19.6 14.9 28.9 22.9 5.8 4.9 9.3 11.9 9.8 19.5 0.5 7.5-1.9 14.9-6.9 20.6-4.8 5.7-11.8 9.3-19.4 9.8z m-193-101.8c-6.1 4.5-13.7 6.3-21.2 5.1-5.4-0.8-10.8-1.6-16-2.2-15.5-1.7-26.8-15.8-25.1-31.6 1.7-14.3 13.8-25.1 28.2-25.1 0.9 0 2.2 0 3.7 0.3 6 0.6 12.1 1.5 18 2.5 7.5 1.2 14.3 5.4 18.7 11.6 4.3 6 6.1 13.5 4.9 20.8-1 7.4-5 14.1-11.2 18.6zM449.7-3v1l-6.6 1.2C353.7 15 272 62 212.9 131.5c-59.7 70.3-92.6 160.1-92.6 252.6 0 215.6 175.4 391 391 391 81.1 0 161.7-26 227.8-73.3L721 675.5c-8.6-12.5-17.3-25.1-25.9-37.6l-8.9-13.4 12.9 0.8h2.5l8 0.1v0.6c24 1.5 100.1 6.4 117.3 8.5h0.5c4.6 0.3 8.5 2 11 3.3 6.9 3.5 11.7 9.4 13.8 17.2l0.7 2.7c1.2 6.9 0.6 14.6-1.9 22.2-8.2 25.6-15.9 51.9-23.4 77.4-3.4 11.7-6.9 23.3-10.3 35l-4.8 16-40.8-59.4C696 802.7 603.9 832.2 511.5 832.2c-119.6 0-232-46.6-316.6-131.2-84.7-84.7-131.3-197.1-131.3-316.7 0-106 37.6-208.5 106-289.4 67.5-79.7 160.7-133.3 263.5-151.7l9.4-1.5v1.5c13.4 2.2 23.7 13.8 23.7 27.7 0.3 11.4-6.2 21.6-16.5 26.1zM735.4 247.5c4.5 9.8 0.3 21.6-9.5 26.3L506 380.9l3.8 246.6-0.1 8.1h-1.6c-3.1 7.5-10.4 12.4-18.6 12.3-7.9 0-15.1-4.6-18.4-11.9h-1.8l-4.2-266.3v-0.2c-0.1-0.8-0.2-1.6-0.2-2.4 0-1.1 0.1-2.1 0.3-3.1v-2.4h0.6c1.5-4.9 5.1-9 9.8-11.1l232.6-112.9 11.5-5.4V236c6.9 1 12.8 5.3 15.7 11.5z"  horiz-adv-x="1024" />

    
    <glyph glyph-name="weifukuan" unicode="&#59366;" d="M880.128 201.728l-65.024-65.024 62.976-67.584c9.728-10.24 9.216-26.624-1.024-36.352-5.12-4.608-11.264-6.656-17.408-6.656-6.656 0-13.824 2.56-18.944 8.192l-61.44 66.048-64-64c-5.12-5.12-11.776-7.68-17.92-7.68-6.656 0-13.312 2.56-17.92 7.68-10.24 10.24-10.24 26.112 0 36.352l65.024 65.024-62.976 67.584c-9.728 10.24-9.216 26.624 1.024 36.352 10.24 9.728 26.624 9.216 36.352-1.024l61.44-66.048 64 64c10.24 10.24 26.112 10.24 36.352 0s9.216-27.136-0.512-36.864z m80.384 271.872v-87.04c0-46.08-37.376-83.456-83.456-83.456h-319.488c-46.08 0-83.456 37.376-83.456 83.456v87.04c0 46.08 37.376 83.456 83.456 83.456h293.376v73.216c0 33.792-27.648 61.44-61.44 61.44h-582.656c-33.792 0-61.44-27.648-61.44-61.44v-493.568c0-33.792 27.648-61.44 61.44-61.44h368.128c14.336 0 25.6-11.264 25.6-25.6s-11.264-25.6-25.6-25.6h-368.128c-61.952 0-112.64 50.688-112.64 112.64v493.568c0 61.952 50.688 112.64 112.64 112.64h582.656c61.952 0 112.64-50.688 112.64-112.64v-77.312c33.792-10.24 58.368-41.984 58.368-79.36z m-51.2 0c0 16.896-13.312 31.232-30.208 32.256h-2.56c-1.024 0-2.56 0-3.584 0.512h-315.392c-17.92 0-32.256-14.336-32.256-32.256v-87.04c0-17.92 14.336-32.256 32.256-32.256h319.488c17.92 0 32.256 14.336 32.256 32.256v86.528z m-289.792-7.168c-19.968 0-36.352-16.384-36.352-36.352s16.384-36.352 36.352-36.352 36.352 16.384 36.352 36.352-16.384 36.352-36.352 36.352z"  horiz-adv-x="1024" />

    
    <glyph glyph-name="xinpinbiaoqian" unicode="&#58938;" d="M784.568 763.8v-715.58L542.376 209.744l-30.262 20.142-30.261-20.142L239.66 48.22V763.8h544.907z m0 54.49H239.661c-30.068 0-54.491-24.424-54.491-54.49v-817.362l326.944 217.963L839.06-53.562V763.8c0 30.067-24.424 54.49-54.491 54.49M390.115 417.85c-14.738-38.483-28.248-62.635-49.536-89.656-3.684 2.457-3.684 2.457-9.415 6.961-2.047 1.638-4.913 3.683-12.281 8.187 24.563 28.658 34.797 46.67 47.897 82.695l23.335-8.187z m94.158 119.132c15.557 0 23.744 0.408 33.16 2.047v-27.43c-9.825 1.638-18.013 2.048-33.16 2.048H362.686c-15.557 0-24.154-0.41-33.98-2.047v27.429c9.416-1.639 17.604-2.047 33.98-2.047h73.28c15.557 26.609 21.698 42.165 27.429 67.139l24.563-7.779c-9.415-24.562-18.832-44.213-27.837-59.36h24.152z m-121.177-91.293c-15.966 0-23.744-0.409-33.98-2.456v27.02c9.416-2.048 18.013-2.458 34.388-2.458h50.354v18.832c0 5.322-0.818 11.873-1.637 16.784h27.02c-0.82-4.912-1.64-11.462-1.64-16.784v-18.832h45.034c14.328 0 22.106 0.41 32.75 2.457v-26.609c-9.415 1.637-17.604 2.047-32.75 2.047h-45.033v-114.218c0-22.107-7.778-27.839-37.253-27.839-9.007 0-19.241 0.41-25.792 1.229v3.684c0 5.731-2.047 13.509-5.321 21.288 14.738-2.866 21.697-3.684 31.113-3.684 10.235 0 13.51 2.047 13.51 8.597V445.689h-50.763z m51.582 185.45c-6.141 11.463-11.462 19.242-22.516 33.161l24.153 9.007c17.604-26.2 17.604-26.2 26.2-42.166h32.343c16.785 0 24.153 0.409 33.978 2.047v-27.428c-11.053 1.637-18.422 2.047-34.387 2.047H372.512c-16.785 0-24.563-0.408-35.617-2.047v27.428c9.417-1.637 18.014-2.047 36.026-2.047h41.757z m-30.704-90.473c-6.96 22.925-12.282 35.616-23.335 54.858l21.696 8.187c11.463-20.47 16.375-32.75 22.926-55.267l-21.287-7.778z m89.655-113.4c20.06-26.609 25.792-35.615 38.482-60.997l-22.107-13.509c-10.644 27.838-18.422 42.166-36.026 65.092l19.651 9.415z m86.79 88.836c-0.41-5.321-0.41-5.321-0.41-15.965-0.41-54.448-9.007-109.715-22.926-146.97-8.187-21.696-16.785-37.252-30.704-56.085-8.596 8.189-13.1 11.874-22.926 17.195 18.014 22.517 29.885 46.26 38.073 77.783 9.007 35.208 13.101 90.065 13.101 184.223 0 26.61-0.819 45.851-2.047 56.085h4.913c22.106 0 63.045 8.187 97.024 18.831 17.195 5.731 27.429 10.235 37.664 17.604l20.878-22.926c-4.093-1.229-4.093-1.229-15.147-5.732-33.57-13.92-64.683-21.697-117.493-30.294v-70.005H664.4c18.423 0 27.84 0.818 37.255 2.457v-28.248c-9.826 1.637-19.241 2.047-35.616 2.047h-15.147V337.61c0-20.468 0.409-30.703 2.457-40.937h-31.523c1.638 10.643 2.457 20.878 2.457 40.937V516.102h-63.865z"  horiz-adv-x="1024" />

    
    <glyph glyph-name="dazhehuodong" unicode="&#58978;" d="M512 855.653c63.69 0 125.455-12.465 183.577-37.048 56.159-23.753 106.604-57.767 149.933-101.096 43.328-43.329 77.342-93.773 101.096-149.933C971.189 509.455 983.654 447.69 983.654 384s-12.465-125.455-37.048-183.577c-23.754-56.159-57.768-106.604-101.096-149.933-43.329-43.328-93.773-77.342-149.933-101.096-58.121-24.582-119.886-37.047-183.577-37.047s-125.455 12.465-183.576 37.048c-56.16 23.754-106.604 57.768-149.933 101.096-43.329 43.329-77.342 93.773-101.096 149.933C52.812 258.545 40.347 320.31 40.347 384s12.465 125.454 37.048 183.576c23.753 56.16 57.767 106.604 101.096 149.933s93.773 77.342 149.933 101.096C386.546 843.188 448.31 855.653 512 855.653m0 40C229.422 895.653 0.347 666.578 0.347 384c0-282.579 229.075-511.653 511.653-511.653 282.579 0 511.653 229.074 511.653 511.653C1023.654 666.578 794.58 895.653 512 895.653zM332.672 142.536c-16.923 0-36.405 6.168-58.265 18.483-9.624 5.422-13.03 17.618-7.608 27.241 5.421 9.624 17.618 13.031 27.242 7.608 21.657-12.201 39.082-16.275 47.808-11.175 8.206 4.796 11.264 19.157 11.264 27.084V625.111c0 11.046 8.954 20 20 20s20-8.954 20-20v-413.333c0-20.046-8.14-48.212-31.082-61.619-8.699-5.084-18.502-7.623-29.359-7.623zM463.114 494H284.225c-11.046 0-20 8.954-20 20s8.954 20 20 20h178.889c11.046 0 20-8.954 20-20s-8.954-20-20-20zM269.764 300.662c-9.032 0-17.224 6.16-19.429 15.328-2.582 10.733 4.022 21.527 14.751 24.118 0.851 0.206 86.244 21.346 187.476 84.215 9.385 5.826 21.714 2.945 27.542-6.438 5.827-9.383 2.945-21.714-6.438-27.542-107.064-66.492-195.497-88.229-199.208-89.122a20.117 20.117 0 0 0-4.694-0.559zM445.342 163.995c-7.938 0-15.448 4.757-18.576 12.577-4.103 10.256 0.886 21.896 11.142 25.997 19.123 7.649 39.169 37.005 56.447 82.66 15.602 41.226 25.571 86.321 30.36 107.994l0.621 2.802V578.444A20 20 0 0 0 541.145 598c9.334 2 57.619 8.847 124.816 18.301 32.105 4.517 62.432 8.784 66.908 9.598 10.861 1.98 21.279-5.231 23.256-16.1 1.975-10.868-5.232-21.279-16.102-23.255-5.02-0.913-28.109-4.172-68.488-9.853-35.965-5.06-81.924-11.527-106.199-15.213v-167.65a20.07 20.07 0 0 0-0.48-4.356c-0.332-1.483-0.691-3.115-1.082-4.883-4.994-22.588-15.383-69.59-32.008-113.519-22.218-58.709-48.06-93.264-79.002-105.641a19.973 19.973 0 0 0-7.422-1.434zM665.336 122.889c-11.047 0-20 8.954-20 20V448.444c0 11.046 8.953 20 20 20h88.889c11.045 0 20-8.954 20-20s-8.955-20-20-20h-68.889v-285.556c0-11.045-8.955-19.999-20-19.999zM665.336 428.444h-120c-11.047 0-20 8.954-20 20s8.953 20 20 20h120c11.045 0 20-8.954 20-20s-8.955-20-20-20z"  horiz-adv-x="1024" />

    
    <glyph glyph-name="yijingguanbi" unicode="&#58996;" d="M428.032 20.624c-4-1.504-6 2.496-8.496 2.496 4.496 6.464 13.472 2 0 6.464 0-6.464-2-8.976-2-13.472 0 0-6.48-2-4.496-2 6.496 2 6.496-4.464 13.472-2 0.016 4.016 0.016 6.016 1.52 8.512 0.48-4 0.992-6.976-1.504-8.496 4.496-1.968 4.496-6.464 10.992-4.464 2 4.464-4.496 0-2 4.464 6.496 0 19.968 4.496 15.472-4.464v4.464c-4.48-1.968-4.48-4.464-6.48-6.464 8.976 0 19.968-2 21.952 4.496v-6.496c2 0 2 9.008 2 13.472 4.496 2 2-1.968 2 0-2 4.496-2 2 0 6.496-6.48 2-13.472 2-21.968 0 0 2-4.496 4.496-6.48 4.496 0-2 2-4.496 0-4.496s-2 2-2 4.496c-4.496-2-8.976-2-10.976 0-1.504-3.008-1.008-5.504-1.008-7.504z m-34.944-2c2.992-1.008 5.488-1.504 8.992-2.496-2 4.496 2 6.496 2 9.008 2 0-2-6.496 2-4.496 2 4.496-2 4.496-2 6.496h4.496v6.976c-4.496 0-6.496-1.968-8.992-1.968 2 1.968 0 1.968 0 4.464-17.984 2-33.44 9.008-48.912 15.504v-2.032c0 4.496-6.496 0-4.496 4.496-4.496 0-6.496-2-8.992 2 0 0 2-4.464 0-4.464 0 0-2-2.032-2 0 0 1.968 4.496 0 2 4.464-4.496 4.464-8.992 9.008-17.968 9.008 0-2.032-2-4.528-4.496-4.528 0 2.032 4.496 2.032 2 6.496-6.496 2.032-10.992 9.008-17.968 11.008l-4.496-4.496c-1.984 2-4.496 2-6.496 4.496 2 8.976-10.976 13.472-19.968 15.472 2 6.496-6.48 2-4.496 9.008-2 1.968-2-2.032-4.496-2.032 0 2.032-4.496 0-2 4.496-2 2.032-2-1.968-4.496-1.968 2 0 4.496 1.968 4.496 0-2-4.496 0-11.008-4.496-11.008 2 4.464-4.496 1.968-4.496 4.464v4.528h5.488c-4.496 2-4.496 6.464 0 8.976 0-2 0-2 0 0 0 4.496-2-2-6.496-4.496-2-1.968 4.496-1.968 0-4.464 0 0 0 2-2 2-2-2-2-6.528-2-11.008 6.48 0 6.48-4.464 10.992-6.496 0 2.032 0 4.528 2 4.528v-6.496c10.976-6.496 21.968-15.504 35.44-21.968 2 8.976 8.992-4.496 13.472 1.968 0-1.968 2-1.968 2-4.432-4.496 0-4.496-2.032-4.496-6.528 8.992 2 10.976-2 15.472-6.496 2 2.032-4.496 4.496 0 6.496 2-2 2-4.464 2-8.976 8.992-2 15.472-4.496 24.464-9.008 2 4.496-4.496 4.496-4.496 9.008 4.496 2 0-4.496 4.496-2 2 2 2 4.464 2 8.976 2-1.968 8.992-6.464 4.496-11.008 0 0 0 2.032-2 2.032 0-4.496 2-6.496 2-9.008 8.976 2 8.976-1.968 15.472-1.968 0 1.968 2 4.464 2 6.464 0 0 2-2 2-6.464h6.496c-2-4.528 0-4.528 0-6.496 4.992-1.504 9.488-2.496 14.48-4 1.008-1.536 1.504-2.032 2-2.032z m263.552 126.784c2.48 2 4.496 4 6.48 6.496 2 1.968-4.48-2-1.984 1.968 6.464-1.968 8.976 0 8.976 4.528 2 0 0-2.032 0-4.528 4.496 0 2 6.496 10.992 4.528 1.984 1.968-4.48 4.464 0 6.464 1.008-1.008 2.496-2 4-2l0.48-0.496v0.512c1.52 0.528 2.496 2.496 4 4h2.496v1.968c1.008 0.528 2.496 0.528 4.496 0.528v4.464c10.992 4.528 15.472 15.504 26.432 21.968 0 9.008 8.992 9.008 8.992 17.968h4.496c0 4.496 4.496 11.008 0 15.472 6.48-1.968 8.992 2.032 10.992 4.528 15.456 28.912 26.448 48.88 35.44 84.336-6.496 2-6.496-6.496-13.472-4.496-9.008-39.936-19.984-57.904-39.952-84.368 0-4.464 2.016-13.472 0-15.472-1.984 2-4.48 2-8.976 2-17.968-21.968-37.456-44.4-61.888-59.872v-2.032c-9.008 2.032-15.488-4.464-19.968-10.976-15.488-1.968-26.448-15.44-44.416-17.936 0-2.032 2-4.528 0-4.528-4.496 4.528-15.472 0-17.968-6.464-2 0 1.984 6.464-2 4.496-6.48-4.496-17.968-4.496-21.968-9.008-2 4.496-6.464 0-8.976-1.968-13.488 4.464-30.944-4.496-48.928-2.032 0 0 0-1.968-2-1.968 0 1.968 2 1.968 2 1.968-13.472 0-21.968 2.032-30.944-1.968v4.464c-6.496 0-10.976 0-15.472 2-4.496-2-4.496-4.496-4.496-6.464 0 1.968-2 1.968-2 1.968 2 0 2 2.032 2 4.496-5.488 0-10.992 1.504-15.472 4.496 0-2 1.984-4.496 0-4.496-4.496 4.496-10.992 6.496-15.472 9.008 0-2 2-4.496 0-4.496 0 0-2-2-2 0 0 0 2 0 2 2-6.496 0-10.992 2-17.984 4.464-2 0 0-4.464-2-4.464 0 0-2-2-2 0 2 0 2 0 2 4.464-4.48 2-8.992-1.968-13.472 0 0 2 6.48-1.968 4.48 2-13.472 2.032-17.968 13.504-30.944 15.504 0-2-1.984-4.496-4.496-4.496-2 4.496 2 4.496 2 6.464-15.472 9.008-28.944 19.968-41.936 28.976 0-2 0-4.496-4.48-4.496-2-4.496 4.48 0 2-4.496 2 0 0 4.496 4.496 4.496 2-4.496-4.496-4.496-2-8.976 4.496 1.968 4.496-2.032 6.496-2.032 0 4.528 2 6.496 4.496 9.008-2-4.464 0-6.496 0-9.008h-4.496c2-4.464 6.496-6.464 10.992-8.944 2 4.464-4.496 0-2 4.464h4.496c0-4.464 2-6.496 2-9.008 2 0 2 2.032 2 2.032 4.48-6.496 10.976-13.504 24.448-13.504-2-2 0-2 0-4.496 4.496 0 6.48-2 8.992-2 0 2 4.48 4.496 6.48 2-2 0-2-2-2-6.496 4.496 0 8.992 0 10.992-4.464 4.496-2 0 4.464 4.496 2-2-4.496 4.496 0 2-4.496 19.968-4.464 44.432-17.936 66.384-13.472 1.984 0 0-4.464 4.48-4.464 4.496 0 2 4.464 6.496 4.464v-4.464c6.48 1.968 13.472 0 19.968-2.032-2 4.496 2 4.496 2 6.496-2 0-4.496-4.464-6.496 0 2 1.968 4.496 1.968 6.496 4.464 0-1.968 4.496 0 4.496-1.968v-2c-4.496 0-4.496 0-4.496-4.496 13.488 0 24.464 2 41.936 2 0 2-2 4.496 0 4.496v-4.496c4.48 4.496 15.488 2 19.952 6.464 0 0 0-1.968 2-1.968 17.968 6.496 39.936 8.976 53.424 19.968 6.48 0 17.968 1.968 19.968 8.976 0 0 0-2 1.984-2 8.496 6.496 19.472 10.976 27.952 17.472 1.984 0.544 2.48 0.544 2.48 1.008z m-157.232-133.776c12.464 1.024 22.464 3.536 28.96 0 6.976 1.504 16.448 2.032 23.44 4-0.496-0.976-1.504-1.968-1.504-4h4.496c0 2.496 0.496 4 0.496 5.008a14.672 14.672 0 0 1 6 3.504c1.984-2-2-2-2-4.496 6.48 2 15.472 2 17.968 6.496 2 0 2 0 2-2 4.48 0 4.48 4.496 8.976 4.496 0-2 0-4.496 2-4.496 4.496 2 6.48 4.496 13.488 4.496 0 1.968-2 6.496 0 6.496 1.984-6.496 8.992-2.032 13.472-2.032 0 1.504-3.008 3.024-3.008 4.528h3.008v-2.032c0.496 0 0.992 0 1.504 0.528 3.504 0.464 6.48 1.504 9.968 2.496 0-1.008 0.512-1.536 2.016-0.528 0 0.528 0.48 1.008 0.48 1.008 7.984 2.496 15.488 5.504 22.464 8.496 1.008-2 2.496-2.496 4-1.024v3.024c7.488 3.504 14.976 7.472 21.968 11.472v-1.008h6.48c0 2 1.984 6.496 0 4.496-0.512-0.496-1.008-0.976-2-0.976a77.6 77.6 0 0 1 6.48 3.472c0 1.968 0 1.968 0 0 1.504 0 2.496 0.976 3.504 1.968 3.008 1.504 6.464 3.024 9.968 5.008 0 2-1.984 4.496 0 6.496 0-2 0-4.496 2-4.496 15.472 6.496 26.448 17.968 39.936 26.432 1.984 4.528-4.496 0-2 4.528 4.48 1.968 0-4.528 4.48-2.032 0 2.032-1.984 6.528 0 6.528 2 0-1.984-6.528 2-4.496 13.488 17.936 33.44 28.944 44.432 48.912-2 0-4.496-2-4.496 0 2 0 2 1.968 4.496 1.968v-4.464c6.48 2 8.976 10.976 13.488 17.968 1.984 2 4.464 2 6.464 4.496 2 1.968 0 6.496 2 8.976 2 2 6.48 4.496 8.992 6.464 2 4.528 2 9.008 4.48 13.504 0 2 4.496 0 4.496 2v4.496l6.48 6.464c2 6.528 4.496 15.472 6.496 20 2 0 4.496 0 4.496 1.968 0 2-2 6.496 0 9.008 0 1.968 4.464 1.968 4.464 4.464v6.496s4.512 0 4.512 2v6.464s4.48 2.032 4.48 4.496c0 6.496 0 13.504 1.984 19.968 0 0 4.496 2 4.496 4.528 2 13.44 2 28.912 6.496 39.904l-17.92 4.528c-8.992-48.944-21.952-93.344-48.928-121.808-1.984-4.464 4.512 0 2-4.464-2 0-2-4.496-6.48-2-1.984-6.496-4.48-13.504-4.48-22l-2 2.032c2 0 2 0 2 4.464-4.496-6.496-8.992-10.976-13.488-17.936-1.984-2.032 4.496-4.496 2-6.496 0 0-2 0-2 4.464-4.48-4.464-8.992-8.976-8.992-15.44-2-2.032-2 0-4.496 0 0-2.032 0-6.496-6.464-6.496-4.496-9.008-19.984-15.472-15.472-24.432l-4.512 4.464v-4.464c-15.456-4.528-21.952-19.968-37.424-26.496 0-1.968 1.984-1.968 1.984-1.968-4.48 1.968-6.464-2.032-10.992-2.032v-4.464c-21.952-13.472-44.4-21.968-64.368-35.44-2 2-13.488-2-15.488-6.496 0 0 0 2-2 2-8.976-6.464-24.448-8.976-37.424-10.976-2-4.496 1.984-2 1.984-6.496-1.984 0-4.48-2-6.464 0 1.984 0 1.984 0 1.984 2-4.48-2 0 4.496-4.48 2-6.496-4.464-21.968 0-26.464-6.496-4.464 4.496-15.472 0-19.968 0 4.496-4.464-1.968-4.464 0-10.976 2 0 4.496 2 4.496 0s2-4.496 0-4.496c0 0-2 0-2 4.496-4.464 2 0-4.496-4.464-2 1.968 4.496-4.496 2-4.496 4.496-2 2 2 2 2 4.496-6.496 0-4.512-11.008-13.472-6.496 0 2-2.016 4.464 0 4.464 4.48 2.032 0-6.464 4.48-4.464v10.976c-4.48 2-6.496-4.464-8.992 0 0-4.464-8.992-1.968-10.976-1.968 0-2.032 2-6.496 0-6.496-2 6.496-2-4.496-4.496-2-2 4.496 4.496 4.496 2 8.976h-10.976c0-2 6.48-2 6.48-4.464 0 0 0-4.496-2-4.496s0 4.496-4.496 2c2-2 4.496-6.496 0-10.976 4-0.528 7.488-0.528 10.976-0.528-1.008-1.008-2.496-1.968-4-1.968 0-2.032 0-4.528 2-4.528 0.512 2.992 6.496 2.992 6.992 4.96z m-0.496 0h-0.992 0.992zM769.456 647.04c-1.52-6.976 13.472-5.488 7.488-9.472 1.984 0 1.984 2 6.48 0 0 0-2 2 0 2 1.984-4.496 1.984 0 4.48 0 0-2 4.496-4.496 2.016-10.976h-4.512v-4.496c4.512 0 4.512 0 8.992 2 0-2-1.984-4.496-6.48-4.496 4.496-4.496 2.016-4.496 6.48-8.976l21.984 6.48c-2.016 0-4.512-2-4.512 0v4.48c-4.48 2-6.464 6.496-8.976 10.992-2 2-2-4.496-4.496 0 0 0 2 0 2 2-2 2-4.48 2-4.48 4.48-2 2-4.496-4.48-6.496 0h4.496c0 2-4.496 4.496-4.496 8.992h-6.48v6.496c-17.968 8.976-19.984 30.944-44.416 30.944 0 0 2-4.48 0-4.48 2 4.48-4.48 6.48 0 8.976 2-4.496 2 2 6.48-2 0 6.48-8.992 13.472-15.488 8.992 0-2 4.512 0 4.512-2-2.016-6.48-9.008-17.952 0-19.952 4.48-2 0 4.48 4.48 2 2-4.496-4.48 0-2-4.496 8.992-6.48 13.488-17.968 28.944-19.968 0-2-6.464 2-4.48-2 1.984 0 4.48-2 4.48-6.48 1.52-0.512 2.016-0.512 2.016 0 0.976 0.48 1.472 0.96 1.984 0.96zM150.512 549.712c3.008 2.992 1.504 10.48 5.488 10.48 0 2-4.496 4.48-2 6.48 0-2 4.496 0 2-4.48 2-2 0 2 2 2l2-1.984c-2 0-2-4.496-6.496-2 2-4.496-2-4.496-2-6.496 4.496 0 2-4.496 6.496-2 2 4.496-4.496 0-2 4.496 2-2 0 4.48 2 4.48 0 0 0-2 2-2 10.976 21.968 21.968 44.416 39.92 59.904v6.48h4.496c0 10.992 10.992 8.992 13.472 19.968h4.496c2 6.496 8.992 13.488 15.472 17.968 8.992 6.496 13.472 15.488 21.968 17.968 2 4.496 4.496 6.496 6.48 8.992 6.496-2 4.496 4.496 10.992 4.496 8.992 13.472 30.944 17.968 44.432 30.96 33.44 10.976 61.888 28.944 104.32 33.44 2 2-4.496 2 0 4.496 26.448-2 61.888 4.48 97.328 1.984 0 2 0 4.512 4.48 2-1.984-2 2-2 2-4.48 8.992 2 17.952-4.496 21.952 0 4.496-4.496 17.968-8.976 19.968 0v-6.496c4.496 0 8.992 0 11.008-2 1.968 4.496-2.016 4.496-2.016 6.496 4.48-2 0 4.48 4.48 2 2-4.496-4.48 0-1.984-4.496 1.984 0 1.984-2 1.984-4.48 9.008 0 17.984-4.512 24.464-6.496 0 0 0 1.984 2.016 1.984-4.512 2 1.984 4.512-2.016 8.992h4.48c0-2 0-2 2-4.48-4.464-2-4.464-4.512-4.464-10.992 1.984-2 0 4.496 1.984 4.496 0 0 1.984 1.984 1.984 0 0 0-1.984 0-1.984-2 1.984 0 1.984 0 1.984-2 2-2 2 2 4.496 2v-4.496c35.44-10.992 61.888-30.96 90.832-48.928 0 2 4.512 4.496 6.496 2-1.984 0 0-4.496-1.984-4.496 0 0 0 2-2.016 2 0-2 4.496-2 6.496-2 1.984 6.496 1.984 15.488 1.984 21.984-6.464-2-6.464 6.48-13.472 4.48 2 2 0 2 0 4.496-24.448 13.472-46.416 26.448-70.88 37.936-2 0 0-4.48-4.48-2v4.48c-10.992 0-17.984 10.976-28.96 6.48 2 0 2 0 2-2-4.496-1.984-9.008-1.984-13.488-4.48 0 4.48 4.48 2 4.48 6.48 2 2.016-2-4.48 2-2 0 2 4.496 0 2.016 4.512-15.504 4.48-30.976 8.976-48.944 10.976 0-2 0-4.48-2-4.48 2 4.48-4.464 4.48-8.976 4.48 0-2-2-4.48-6.496-4.48v6.48c-10.976 2-19.968-6.48-21.968 2-6.496-2-6.496 0-13.472-2-6.496 4.496-21.968 0-35.44-2 0-4.48-6.496-2-2-6.496-1.488 0-2.992-0.512-4.496-0.992v1.008l-0.944-1.008c-1.008 0-1.504 0-1.504 0.992 0 2 4.496 2 2 4.496-17.968 2-26.448-4.496-41.92-2 2-2-2-2-2-4.496-8.992 2-24.464-4.496-33.44-8.976-4.48-2 0 4.48-4.48 1.984-8.992-4.48-17.968-4.48-26.464-8.976 0-2 2-4.48 0-4.48-2 6.48-8.992 0-10.976 0 0-2 2-6.496 0-6.496s2 8.976-2 6.496l-4.496-4.496c-59.904-24.464-101.824-61.904-141.76-106.336 0-2 4.496-2 4.496-4.48-4.496 2 0-4.496-4.496-2 0 2 2 4.48-2 4.48 0 2 2-4.48 0-4.48-4.496 0 2 2-2-2-1.984-2-6.496-2-6.496-4.496v-4.496c-1.984 0-4.48 0-6.48-2 0-2 0-6.496-2-8.976-2-4.496-2-2.016-4.496-6.496l-4.496-2c0-2 0-6.496-2-8.992 4.496-2 0 6.496 4.496 4.496 0-4.496-2-6.496-2-10.992 0 0 1.008-1.984 1.504-4.48h-1.504c-2.992 0-1.984-2.016-2.992-3.504 4.992 3.504 2.992 3.504 2.992 7.504h-8.48c-4.496-8.992-6.496-17.968-10.992-24.464 2 0 2-6.496 0-8.992 0 0 0 2-2 2 0.992-0.992 0.992-2.992 2-4.496-4.496 0-2-13.472-8.992-8.976 2 4.496 2 6.496 4.496 10.992h-4.464c0-2 2-8.992-2-8.992 0-2 4.48-2 2-6.496H127.04c2-4.496-2-4.496-2-6.496 4.496 2 4.496-2 6.496-2 2 2 0 6.496 4.48 6.496a20.704 20.704 0 0 1 0-15.472c-2 0-6.48-2-6.48 0-2 2 2 2 2 4.496-6.496-2.016-4.496 1.984-8.992 1.984 2-8.976-2-10.976 0-17.952h-4.48c0-15.488-6.48-26.464-8.992-41.936-1.984-15.472 0-19.968-4.496-35.44h19.968c0 41.936 10.992 64.384 21.968 95.328 0 0-2 4.496 0 6.496 2 0-2-8.976 2-6.496-2 10.992 4.496 10.992 4.496 17.984-1.008 0.528-1.504 2.032-2.496 4.016z m-1.504-1.008c-4 0-5.488 1.008-6.48 2v-6.496c3.488 0.016 5.984 1.52 6.48 4.496z m356.896 144.272h6.496v-4.496c4.48 0 6.496 2 8.96 4.496 13.488-4.496 15.488-4.496 30.96-4.496v-8.992c4.496 0 0 6.496 6.496 4.496 0-2-4.496-2-2-6.496-9.008-2-9.008 4.496-17.968 2 0 4.496 4.496 2 6.48 2v2c-4.48 1.984-10.992 0-8.992-4.496-2 4.496-13.472 0-15.472 4.496-1.984-4.496-6.496 0-10.976 0-3.984 6.992-1.504 4.992-3.984 9.488z m166.704-66.4c4.496-2 6.48-2 13.488-2 0-2-4.496-2-2-6.48-2 4.48-10.992 4.48-13.488 6.48-2.48 2 4-0.48 2 2z m26.448-24.448h6.48c0-2 0-2 2.016-2-2.016-2-2.016-4.496-6.496-4.496 0 2-2 2-2 6.496z m11.008-2.496s0-2 0 0c0-4.496 6.48 0 4.464-4.496-4.464 2-1.984-2-6.48-2-2.496 4.496 2.016 2 2.016 6.496z m-498.672-130.784v-8.976c-4.48 0-8.992-2-10.976-2 2 2 2 10.976 10.976 10.976zM477.44 21.12c2 0 2-2 2-4.496h-4.48c0 4.496 4.48 2 2.48 4.496z m28.464-13.456c-2.016 2 0 2 0 4.464h-2.016v-4.464c2.016 2 2.016-4.512 2.016 0z m-285.52 128.768c2-4.496-2-4.496-2-6.496 4.496-2 4.496 2 6.496 2v4.496h-4.496z m-4.48-6.992c0 2 2 6.496-2 6.496 2-2-0.512-6.496 2-6.496z m4.48-9.008c2 0 4.496 2 4.496 4.528-4.496-2.032 0 4.464-4.496 1.968v-6.496z m266.048 570.048c2-2 2-2 2-4.496-15.472 2-30.944-6.496-41.92-2-8.992-6.496-28.96-4.496-37.44-10.992-2 0-2 0-2 2-2-4.48-8.992-4.48-13.488-8.976-30.944-6.496-53.392-26.448-77.36-39.936 0 4.496 4.496 6.496 4.496 10.976 0 2-2 0-4.496 0 15.472 13.488 35.456 24.464 57.408 33.44 0 2 4.496 2 2 4.48 15.472 0 19.984 8.992 35.44 8.992v-4.496c2 0 0 4.496 0 6.496 4.496-4.496 6.48 2 4.496-4.496 4.496-2 0 4.496 4.496 2 2 4.48-4.496 0-2 4.48 8.992 2 21.968 6.496 26.464 0 4.496 0 4.496 4.496 6.48 4.496 4.496 0-1.984-4.496 2-4.496 4.496 0 2 2 2 4.496 4.496 2 17.968 4.48 21.968 0 0 2 6.496 2 8.992 2l0.464-3.968h1.504c2 0 0 2 0 4.496h10.976c0-2-2-4.496-4.496-4.496 0-2 4.496-2 4.496-4.496h-10.976c4.992 2.496 2.48 4.496-1.504 4.496z m-26.96-4c4.496 0 6.496 2 8.992 4.48-2-2.48-6.496-0.48-8.992-4.48z m124.288-11.488c0 4.496 10.992 4.496 10.992 0 0 0 0 2 1.984 2 2.016-4.496 10.992-8.992 15.488-6.496v-4.496h-4.496c0-2 2-2 2-2 2.016 0 0 4.48 2.016 2 0-2 0-2 1.984-2-1.984-2-1.984-2-1.984-4.496-6.496 0-13.504 2-13.504 6.496 4.48 2 0-4.496 4.48-2 0 2-4.48 4.48-4.48 6.496-1.984 0 0-4.496 0-6.496-8.976 2-17.952 2-21.952 10.976-4.496-4.48-9.008 2-15.488 0v10.992c4.496 2 2-2 6.48-2-1.984-4.496 0-4.496 0-6.496 10-2.48 20.976 6.512 16.48-2.48z m50.928-17.472c8.976 2 6.48-4.48 13.472-4.48 0-2-4.496-6.496 0-8.992 0 2 2 4.496 2 6.496 4.48 2 0-4.496 4.48-2-2-4.496-2-2 0-6.496-4.48 0-6.48 0-6.48-2-4.496 2-6.496 4.496-10.992 6.496 0 2 1.984 2 4.48 4.48-2.496 2.016-4.976 2.016-6.96 6.496-2.016-4.48 4.464-4.48 1.984-8.976-4.48 2-8.992 2-8.992 6.496-2 0-2-4.496-6.496-2 0 2-1.984 2 0 4.48h4.496c2 4.496-2 2-2 6.496 4.496 0 6.48-4.496 11.008-2v-4.496z m-338.928-35.424c2 0 4.496 0 4.496 2h4.496c2 0 0 4.496 0 4.496 4.496 2 0-4.496 4.496-2 2 4.496-4.496 0-2 4.496 4.496 0 2 4.496 6.496 4.496 0-6.48-4.496-8.992-2-15.472-6.496-2-8.992-8.992-17.984-10.992 0-4.496-4.48-6.48-6.48-8.976h-2c0 4.48 4.496 2 4.496 6.496 0 1.984-2 0-2 0-1.984-4.496-4.48-8.992 0-13.488-19.968-15.472-28.944-39.936-48.912-57.904 0 4.496 0 4.496 2 4.496 0 2-4.48 0-6.48 0 2 4.48 6.48 4.48 6.48 10.976 2 2 0-4.496 0-4.496 2 2 4.496 4.496 8.992 4.496v2.496c0 2-2 0-4.48 0-2 4.496 2 4.496 2 8.992 6.496 0 4.496 8.976 10.992 6.48v6.496c4.496 2 0-4.496 4.496-2-6.496 6.496 6.48 8.976 4.496 15.472 4.48-1.984 8.976 13.488 10.976 4.496 2 0 0 4.496 0 6.496 4.496 2 4.496 6.496 10.992 6.496 2-2 0-6.496 0-8.992 3.936 11.456 8.432 15.952 6.432 24.944z m392.32-2.496c9.008 2 9.008-13.472 13.488-6.496 0-4.496-2-8.976-4.48-10.976 0 4.496-4.496 4.496-9.008 6.48 0 2 2 4.496 6.496 4.496-2 2-4.496 2-6.496 6.496-1.984-2 0-6.496 0-6.496h-4.48 1.984c0 2 2.496 4.496 2.496 6.496z m-459.2-92.848c0 4.496-2 6.496-2 8.992 2 0 2 2 2 2h8.992c0-6.496-4.496-4.496 0-8.992-8.992-8.976-8.992-26.448-17.968-35.44 2-6.48-2-8.976-2-10.976-4.496 0-2 4.496-4.496 2h-2c-2-2 0-8.976 0-10.976-2 0-2-2-2-2h-6.48c4.48 21.952 13.472 37.936 19.968 55.392h5.984zM477.44 12.128c0-1.968-6.48-1.968-4.496-8.976h-4.496c0.016 6.512 6.512 10.976 8.992 8.976z m179.2 634.432c2 0 2-4.496 4.496-2v-4.496c6.464 2 6.464-2 10.976-2v-6.496c-4.496 2-2-2-4.496-2-1.984 0-4.48 2-8.976 2-2 2 0 6.496-2 6.496 0 4.496 4.496 2 2 4.496 0.48-0.512-2-0.512-2 4zM490.416 233.776c4.496 0 6.496-2.032 6.496-4.528-3.984 0-3.984 2.496-6.496 4.528zM882.24 347.568c-5.968 0-5.968-2-11.456-2 1.984 4-4 2-4 5.504-2 0-2-5.504 1.984-4-15.472-7.504-32.432-13.472-51.904-15.008 0 4.032-2 5.536-5.984 5.536 0-2.032 3.984-4 1.984-7.504-17.456-2-36.432-14.976-53.888-9.472-2 0 0-2.032-2-4-67.392-18.976-136.288-35.936-203.152-55.408-3.984 0-2 3.968-3.984 3.968-2.016 0 0-3.968-2.016-5.472-15.472-2-26.944-7.504-38.416-5.504 0 4 7.488 0 6 5.504 4 0 4-2 5.984-2 2 0 0 5.504 4 3.968 0 2.032-2 5.536-2 9.504 2-3.968 4-2 4 2 3.984 0 7.488 0 7.488-2 2 0 0 2 2 4 28.96 5.504 55.408 14.976 84.336 22.976 11.488 0 20.992 3.968 30.96 9.472 6-4 13.488 4 22.96 4 2.016-4-1.984-2-3.984-4 3.984-1.968 6 5.504 11.488 9.472 4 2.032 7.488-1.968 9.488 2.032 0-2.032-2-5.504 2-5.504 1.984 0 0 4 1.984 5.504 24.976 5.472 45.936 14.976 76.88 16.976 7.488 7.472 24.976 7.472 32.448 13.472 9.472-4 22.96 7.472 38.416 7.472 0-5.472 6-5.472 6-9.472 1.984 4-7.504 5.472-6 11.472 6 2.032 4-3.968 6-3.968 1.984 0 0 3.968 1.984 5.472 6-2 11.488 4 11.488 0 9.488 4 26.944 9.488 36.432 7.504 2 3.984-4 0-2 3.984 2 0 7.504-2 7.504 1.984 13.472-1.984-6-1.984 9.488 2 1.984-3.984-4 0-2.016-3.984 4 0 4 5.488 6 5.488 22.96-1.984 40.416 16.992 57.408 9.488 3.984 2 5.968 9.488 0 11.488-4 0 1.984-7.504-4-5.488 0 24.96-17.472 43.92-11.488 66.368 4 2 0-4 4-4 3.984 2-2 4-2 5.504 2 0 2 0 2 2s-4 0-5.984 2c-2 0 0-4-2-5.504-9.504 20.976-13.488 49.424-22.976 72.384-2 4 2.016 5.488 2.016 7.488s-2.016 0-4.016 2c-5.984 22.96-11.472 41.92-17.472 64.896 6-4 4 5.488 9.504 5.488-4 0-4 2-6 5.488-1.984 0 0-5.488-1.984-9.472-7.504-2-2.016 7.488-7.504 9.472 0 2 5.984 0 5.984 0 2 2 0 5.488 4 5.488l-4 4c-3.984 0 0-5.488-1.984-4-4 0 0 2-2 4-5.984 2-5.984-4-9.504-4 0-3.984 4-3.984 4-7.488-5.968-4-13.472-5.488-18.96-9.488-4-2 0 4-4 4-2.016-2 40.432 4 34.432 4v7.488h-3.984c-2-1.984 0-7.488-2-9.472-42.432-9.472-80.352-22.976-122.784-30.448v7.424c-2.016 0-2.016-1.984-4-1.984 1.984-2 4-4 1.984-9.488-74.864-18.96-151.728-37.936-224.608-60.896-11.488 2-18.96-9.472-26.96-2-2-1.984-2-3.984-3.984-5.488-5.984 4-15.488-2-20.976-4v5.504h-5.984c2-4 2-2 0-5.504-4 4-6-2-13.472 0-2 0 0-4-2-5.488-7.488 3.984 5.984 9.488 0 11.472h5.488v4c-4 0-2-4-6-2-2-2-2-5.488-5.984-5.488 2 2 4 2 4 5.488a13.664 13.664 0 0 0-9.488-4c6 0 2-7.488 9.488-5.504v-5.472c-4 1.984-4 9.472-9.488 9.472 0-4-4-5.488-5.984-7.488 2-4 4 4 7.488 2v-4c-4 0-5.984 0-7.488-2-2 4-7.488 2-9.488 7.488-4-1.984 0-3.984 0-5.472-2 1.984-5.984 5.472-5.984 11.472-4 2-4-2-6-4 2-2 2-4 6-4v-7.504c3.984-1.984 0 4 3.984 2 2-3.984-3.984 0-2-3.984-74.864-18.976-149.728-37.936-222.608-58.912-9.488 0-15.472-3.984-22.96-5.488-2 0-2 2-2 3.984h-6c-2-3.984 4-1.984 2-5.488-6 2-11.472-5.488-15.472 0-4-7.488-17.456-9.488-24.944-4 0-3.984 3.984-2 2-5.488-5.984-2-2 5.488-7.488 4 0-2 2-2 2-4-7.488-2-7.488 2-13.472 9.488-4-2 2-4 0-5.488-4 0 6-13.488 0-11.488 0 1.984 11.472 13.472 9.472 14.976-2-2-2-4-2-5.488-7.488 0-11.472-2-18.96-4 0 2 2 2 2 4-4 0-5.984-2-5.984-5.488-2 0-2 0-2 1.984-2 0 0-1.984-2-4-4 4 17.472 13.488 13.472 9.504v2.992c-4 0-4-3.984-6-5.488 2-4 2 3.984 6 1.984v-3.984c-11.472-5.504-15.472-14.992-22.96-9.488-4 0 2-2 0-3.984-5.984-2.016-13.472-2.016-17.456-4 0 4 0 4 1.984 5.488-4 2.016-7.488 7.488-11.472 5.488 2-3.968 4-3.968 9.488-3.968-2-4.016-2-7.504-6-9.504-4 0-2 4-4 4-2-2-2-4-4-5.488-7.488 0-13.472-2-18.976-4 0 2 2 5.488-2 5.488-2 0 0-3.984-2-5.488 0-4-2 2-2 4-6-2-6-7.504-13.488-5.504v5.504c-4 0 2-5.504-4-4v4c-4 0-4 1.984-7.488 1.984-4-3.984-2-9.488-2-14.976h4c2 0 0 5.488 2 7.488 4 1.984 4-2 6-2 0-7.488 2-11.472 2-16.976 0 0-2 0-2 2h-0.992c0 3.984 4 1.984 2 5.488 2-3.984 2-1.984-2-1.984-2 0 0-2-2-3.984h-5.472c0 11.456-6 14.96-6 26.432 4 0 4-2 6-2s0 2 2 4c7.488-2 11.488 5.504 17.472 0 2 2 5.984 2 5.984 5.504 4 1.984 4-2.016 4-4.016 0 7.504 7.488 4.016 15.472 7.504-2-3.984 3.984-2 2-7.504h4v4.016c0 3.968-6 0-4 1.984 1.984 3.984 9.488 9.488 13.472 3.984 2 0 0 2 2 4 1.984 0 1.984-2 3.984-2 11.488 7.488 32.448 7.488 45.92 13.488l-8.992-3.504c15.472 4-2 0 15.472 2-1.984-5.504 4-4 6-4 0 4-3.984 2-2 5.504 18.96 2 34.432 13.472 53.904 11.488 2 0 0 1.984 2 3.984 13.472 4 28.944 7.488 42.416 11.488 18.976 2 36.432 9.488 53.904 13.472 41.424 9.488 82.368 19.968 122.784 32.432 11.488 0 18.976 7.488 30.96 4 2 0 0 2 2 4 2 0 7.488 2 6-2.016 0 2.016 4 2.016 4 4 95.84 24.96 191.664 51.408 289.504 75.872 4 0 1.984-5.488 5.984-4 1.984 4-4 2-1.984 5.488 17.472 2 32.416 7.488 49.888 11.472l17.488 5.504c22.96 2 38.432 9.472 57.392 13.472-2-4 2-4 4-5.488 4 2-4 2-2 5.488 24.96 5.488 3.984 4 28.96 7.472 0-9.472 5.968-14.96 2-20.96 0-2 2 0 3.968-2 0-13.488 11.504-26.464 6.016-37.936 5.984-5.504 5.984-18.976 9.472-26.448-3.984 0-1.984 4-5.984 2 9.504-5.504 13.488-18.976 11.472-32.448 4 0-1.968 7.488 4 5.488-1.984-11.472 9.488-20.96 4-30.448 11.488-13.488 7.488-39.936 18.96-53.392 2.016-22.96 9.504-35.936 13.504-55.408-43.936-11.488-43.936-14.992-86.336-26.464l-27.024 0.592zM509.904 510.784c0-4 5.984-2 5.984-4-1.984 4 2 4 2 5.504 0 0.496-2.016-3.504-7.984-1.504z m414.768 108.32c0 3.984-1.984 5.472-5.984 3.984 0-2 1.984-3.984 5.984-3.984z m-1.984-28.448c0 3.984-2.016 5.488-4 5.488 0 0.496 0-3.504 4-5.488z m-53.92 11.472c2.016 2 5.984 2 5.984 4h-5.984v-4z m-76.864-14.976c6-2 4 4 9.488 2v4c-5.488 1.488-7.488-2.496-9.488-6z m-14.96-2c1.984 4-1.984 4-4 4 0-4 2.016-4 4-4z m159.216-60.896c1.984 2 5.984 2 5.984 4h-4c1.52-1.984-4 0-1.984-4z m5.488-13.472c4 0 2 5.488 2 9.488-3.984 0-3.984 0-5.984 2 0-5.504 5.984-3.504 3.984-11.488z m24.96-72.368v5.504h-4c-1.488-3.52 2-3.52 4-5.504z m5.968 0h-3.984c2-5.504-3.984-4-3.984-9.488 2 0 3.984 0 3.984-2 3.984 0 2 3.984 6 2v5.488c-4 2 0-5.488-4-5.488 0 1.984-3.984 1.984-3.984 3.984h3.984c1.984 1.984 1.984 4 1.984 5.504z m0-26.464c2.016 2 4.016 4 4.016 7.504-2.48-0.016-2.48-3.504-4.016-7.504z m-94.304-62.896v3.968h-4c-1.504-3.968 0.48-5.456 4-3.968z m-318.48-75.872h4a4.288 4.288 0 0 1-4 4v-4z m-13.472-7.472v5.472h-3.488c-1.984-3.504 0-5.472 3.488-5.472z m-329.936 167.2c4-2 6 5.504 2 4 0-2.016-2-2.016-2-4z m-61.376-14.96c0-2-6 0-4-4 5.984 0 7.488 2 7.488 5.504h-4v-1.504h0.512z m-9.488-2v3.984h-4c-1.984-1.984 0-3.984 4-3.984z m-34.448-13.472c2 3.984-3.984 1.984-6 1.984-1.984-4 4-1.984 6-1.984z m-36.432-7.488c0 3.984-2 5.472-4 5.472 2 0 0.016-5.472 4-5.472z m9.488 0v3.488h-4c0-1.488 0-3.488 4-3.488z m-8.992-103.328v7.504c-1.984 0-1.984-5.536-3.984-2 3.984 22.976-9.488 45.408-13.472 68.368-4 2 0-4-4-2 0 4 5.984 11.488 0 13.472v-9.472c-2 0-2-2-4-2 0 4-2 4-4 4-2-4-2-7.488-5.984-4 2-4 2-5.472 2-11.472 2-2 6 0 6-2 0-4-6 0-4-4 7.488-11.472 5.984-32.432 17.472-39.936-4-5.472 2-20.944 6-24.976 0-2-2-2-2-3.968l28.96-102.848c2-1.968 5.984 0 5.984-1.968-2-2.032 0-4-2-4s-2 1.968-3.984 1.968c0-7.472 0-13.472 5.984-14.944-5.984-4 0-9.504 0-13.504 42.432 9.504 18.976 2 61.392 11.504l17.472 7.472a148.928 148.928 0 0 0 32.448 9.472c0 4-7.472 4-4 7.504 2-2 4-3.968 4-5.472 55.408 9.472 105.328 26.432 159.232 39.904 2 2 0 4 2 4 7.488-4 15.472 2.032 22.976 2.032 2 1.968 0 3.968 2 3.968 11.472-3.968 38.432 9.504 59.392 11.472 2 2-4 4 0 4-2-4 4-2 6-2 2 2 2 7.504 6 11.472 2 0 2-7.472 0-7.472 11.472-2 15.472 4 24.96 4 1.984 3.968-6 0-4 3.968-4 2 0-3.968-4-2-2 4 4 0 2 4-6-2-9.488-5.472-13.472-9.472 2 7.472 2 7.472 2 11.504 2-2.032 6-2.032 7.488-4.032 0 5.504 4 7.504 7.488 9.504 1.984-7.504 9.472-4 17.456-4-2 4 2 4 2 2-2 2-2 5.472-6 5.472 0-1.968 0-1.968-2-1.968-2-4 4 0 2-4-2 2-6 0-6 2s2 2 2 3.968c-9.472-1.968-17.472-5.472-28.944-5.472 2-7.504-9.488-2-4-7.504-4 0-7.472 2-4 4.032-6 0-13.472-2.032-9.488-5.504 0 1.968 0 1.968 2 1.968-2-1.968 0-5.472-2-5.472-2 1.968-4 1.968-6 4 0 1.968 2 1.968 2 3.968-5.984 2.032-7.488-2-9.488-3.968-7.488 3.968-20.96-5.504-32.432-5.504-2-2 0-4-2-4-3.984-2-5.984 2-7.488 2 0-5.504-7.488-5.504-9.472-9.504-2 4 2 2.032 2 5.504-4-2-7.488-5.504-11.472-2-2-3.968-7.488-3.968-13.488-3.968-20.96-5.536-43.92-13.504-68.88-17.008-4-2 0-3.968-2-5.472 0 1.968-2 4-4 4-2-2.032 0-4-2-4 0 1.968-2 1.968-6 1.968-70.88-20.944-86.336-18.944-159.232-39.904 2 0 2 0 2-2.032-6-1.968-4 4.032-9.488 2.032-2-4-3.984-7.472-5.984-11.504-7.488 5.504 0 13.504-3.984 20.976-2-1.968-6-5.504-7.504-1.968 0 3.968 4 1.968 6 1.968v7.52c-2 0-2-2-4-2 4 13.504-5.984 24.944-5.984 39.904-2 2.032-4 0-4 2.032 0 2-2 3.968-2 2 2-7.504-5.984-7.504-5.984-13.504-2 0-4 0-4 2 5.984 2.032 4 13.472 9.488 16.976-2 18.976-6 35.936-15.472 49.44v3.968c0.992 0.496 2 1.024 1.488 3.008 1.504 0 1.008 0 0 0z m-15.968 97.328c0 4-2 5.504-6 5.504 0-1.504 0-5.504 6-5.504zM270.304 326.624l14.48-57.44c2-7.968 6.992-10.976 14.48-9.008l97.328 24.496c4 1.008 7.488 2.976 9.488 5.968 2.496 4.496 2 16.976-2.496 38.432l14.464-1.008c4-23.968 4.496-38.944 1.504-44.944-2.992-4.976-8.48-8.464-15.968-10.944l-105.328-26.464c-14.48-3.504-23.456 1.968-27.456 16.944l-25.44 100.336 13.472 3.504 6.992-27.44 104.32 26.432-12.48 49.92-128.272-32.448-3.488 13.488 142.256 35.936 19.472-76.352-117.328-29.408z m273.04 157.712c-1.008-14.992-3.52-28.96-8-41.424l39.44 9.984 3.488-13.472-63.888-15.984 2.496-8.992c2.016-9.472 3.488-18.96 4-26.96l77.36 19.472 3.504-13.488-69.408-17.472c15.984-23.44 45.44-36.912 89.36-41.408l-5.008-15.008c-46.416 6.496-77.856 22.976-95.344 49.408-0.992-11.984-2.992-22.448-7.472-32.416-8.496-19.968-26.464-38.432-53.408-55.44l-10.496 10c26.96 16.464 43.936 34.432 51.408 52.4 2.992 8 4.496 16.496 4.992 25.44l-68.368-17.44-3.504 13.472 71.872 17.968a132.48 132.48 0 0 1-4 27.456l-2.496 9.008-63.888-15.984-3.488 13.488 86.848 21.968c4.496 12.992 7.488 27.952 9.008 45.408h14.992v0.016z m-55.408-46.432l-10.992-9.472a243.312 243.312 0 0 1-29.952 26.944l10.992 9.504c9.984-8 19.968-16.496 29.952-26.976z m141.248 37.44l36.432-143.296-13.488-3.472-36.432 143.248 13.488 3.52z m38.432 9.488l-10.976-9.472a241.92 241.92 0 0 1-32.432 28.432l10.976 8.496c11.472-8 22.464-16.976 32.432-27.456z m-12.48-50.416l-3.504 13.472 56.912 14.48-6.992 27.952 13.488 3.488 6.976-27.952 26.448 6.496 3.504-13.488-26.448-6.48 16.976-67.376c3.008-12-1.008-19.984-12.464-22.48l-19.472-4.976-6.496 12.464c6.496 1.008 12.496 2 17.968 3.504 5.504 1.504 7.008 5.488 5.504 11.488l-12.464 49.888c-7.008-22.96-20.976-45.408-41.936-66.864l-9.984 9.968c25.456 23.968 40.928 47.424 45.424 70.368l-53.44-13.952z m114.32-74.352l-6.512 11.968 16.48 3.984c5.504 1.504 8 6 5.984 13.488l-32.432 127.28-73.36-18.464-3.008 12.976 86.848 21.968 36.432-144.256c3.504-12.992-1.504-21.456-14.48-24.464l-15.952-4.48z"  horiz-adv-x="1024" />

    
    <glyph glyph-name="zhuye1" unicode="&#58998;" d="M977.480165 428.13222562L547.77595719 850.06924875c-18.91614844 18.54524344-52.0357725 18.54524344-70.82101313 0L47.55618688 429.20130469c-15.27255375-14.02893188-19.76704781-35.56323187-11.41077938-55.0466475a50.11579406 50.11579406 0 0 1 46.10129438-30.04329469h46.12311187c13.15621406 0 23.89063781-10.51624406 23.89063781-23.45427938V-46.47328969C152.26045156-73.81116094000004 174.79837719-96 202.50715344-96h174.76165031c27.70877625 0 50.24670187 22.18883906 50.24670187 49.50489188v265.96061437c0 12.89439937 10.71260531 23.41064344 23.84700188 23.4106425h123.3149625c13.13439656 0 23.84700188-10.51624406 23.84700094-23.4106425v-265.96061437c0-27.31605281 22.53792562-49.50489188 50.29033781-49.50489188h174.76165031c28.12331719 0 51.03214781 22.18883906 51.03214781 49.50489187V319.89345562999995c0 7.33082625 1.85452406 12.04349906 6.69810563 16.79980968 4.47267656 4.38540469 10.25442937 6.58901625 17.10526031 6.58901531h43.13405531c20.07249937 0 37.74502594 11.54168719 46.25401969 30.30511032a48.76308187 48.76308187 0 0 1-10.31988281 54.54483468"  horiz-adv-x="1024" />

    
    <glyph glyph-name="down-trangle" unicode="&#58896;" d="M530.877 222.173l285.857 285.857c10.929 10.929 10.929 29.334 0 40.837-10.929 10.929-29.334 10.929-40.837 0l-265.725-265.725-264.573 264.573c-10.929 10.929-29.334 10.929-40.837 0-10.929-10.929-10.929-29.334 0-40.837l284.703-284.703c12.077-11.502 29.908-11.502 41.418 0Z"  horiz-adv-x="1024" />

    
    <glyph glyph-name="kucunx" unicode="&#58999;" d="M512-128C229.2224-128 0 101.2224 0 384S229.2224 896 512 896s512-229.2224 512-512-229.2224-512-512-512z m16.0512 754.688a25.6 25.6 0 0 1-22.2464 0l-200.192-96.5632a25.6 25.6 0 0 1 0-46.1056l200.192-96.5632a25.6 25.6 0 0 1 22.2464 0l200.2176 96.5632a25.6 25.6 0 0 1 0 46.1056l-200.2176 96.5632z m175.9232-222.08a25.6 25.6 0 0 1-22.6304 0.256l-153.6512-73.4976a25.6 25.6 0 0 0-22.2976 0.1024l-149.8368 73.3696a25.6 25.6 0 0 1-22.4 0.0768l-29.952-14.464a22.0416 22.0416 0 0 1 0-39.7056l202.1888-97.5104a25.6 25.6 0 0 1 22.2464 0l203.8272 98.304a21.7088 21.7088 0 0 1 0.384 38.912l-27.904 14.1568z m0-128a25.6 25.6 0 0 1-22.6304 0.256l-153.6512-73.4976a25.6 25.6 0 0 0-22.2976 0.1024l-149.8368 73.3696a25.6 25.6 0 0 1-22.4 0.0768l-29.952-14.464a22.0416 22.0416 0 0 1 0-39.7056l202.1888-97.5104a25.6 25.6 0 0 1 22.2464 0l203.8272 98.304a21.7088 21.7088 0 0 1 0.384 38.912l-27.904 14.1568z"  horiz-adv-x="1024" />

    
    <glyph glyph-name="lihe" unicode="&#58992;" d="M541.582222 422.684444v195.697778c-9.102222 0-20.48 2.275556-27.306666 2.275556h-2.275556c-11.377778-2.275556-22.755556-2.275556-38.684444-4.551111v-193.422223H72.817778V577.422222c0 25.031111 20.48 43.235556 43.235555 43.235556h182.044445C250.311111 632.035556 213.902222 652.515556 211.626667 691.2c-2.275556 45.511111 50.062222 120.604444 125.155555 102.4 77.368889-18.204444 131.982222-77.368889 172.942222-129.706667 40.96 52.337778 102.4 120.604444 182.044445 131.982223C762.311111 804.977778 816.924444 736.711111 810.097778 691.2c-6.826667-38.684444-43.235556-61.44-91.022222-70.542222h179.768888c25.031111 0 43.235556-20.48 43.235556-43.235556v-154.737778H541.582222zM345.884444 752.64c-36.408889 13.653333-59.164444-2.275556-75.093333-27.306667-9.102222-13.653333-18.204444-34.133333-4.551111-47.786666 36.408889-36.408889 134.257778-34.133333 202.524444-27.306667-31.857778 38.684444-70.542222 81.92-122.88 102.4z m409.6-75.093333c25.031111 34.133333-25.031111 102.4-79.644444 77.368889-52.337778-25.031111-88.746667-63.715556-122.88-104.675556 27.306667-2.275556 56.888889-2.275556 84.195556-2.275556 36.408889 2.275556 100.124444 4.551111 118.328888 29.582223zM475.591111-43.804444H150.186667c-22.755556 0-40.96 18.204444-40.96 40.96V390.826667h366.364444v-434.631111z m430.08 40.96c0-22.755556-18.204444-40.96-40.96-40.96H539.306667v432.355555h366.364444v-391.395555z m0 0"  horiz-adv-x="1024" />

    
    </font>
</defs>
</svg>
